<svg width="62" height="69" viewBox="0 0 62 69" fill="none" xmlns="http://www.w3.org/2000/svg">
<g filter="url(#filter0_d_271_875)">
<path fill-rule="evenodd" clip-rule="evenodd" d="M39.5 13.9402H48.0909C49.6099 13.9402 51.0666 14.533 52.1407 15.5882C53.2148 16.6435 53.8182 18.0747 53.8182 19.567V53.3278C53.8182 54.8201 53.2148 56.2513 52.1407 57.3065C51.0666 58.3617 49.6099 58.9545 48.0909 58.9545H13.7273C12.2083 58.9545 10.7516 58.3617 9.67748 57.3065C8.60341 56.2513 8 54.8201 8 53.3278V19.567C8 18.0747 8.60341 16.6435 9.67748 15.5882C10.7516 14.533 12.2083 13.9402 13.7273 13.9402H22.3182C22.3182 11.7017 23.2233 9.55492 24.8344 7.97208C26.4455 6.38923 28.6306 5.5 30.9091 5.5C33.1875 5.5 35.3727 6.38923 36.9838 7.97208C38.5949 9.55492 39.5 11.7017 39.5 13.9402ZM33.7727 13.9402C33.7727 14.6864 33.471 15.4019 32.934 15.9296C32.3969 16.4572 31.6686 16.7536 30.9091 16.7536C30.1496 16.7536 29.4212 16.4572 28.8842 15.9296C28.3472 15.4019 28.0455 14.6864 28.0455 13.9402C28.0455 13.194 28.3472 12.4784 28.8842 11.9508C29.4212 11.4232 30.1496 11.1268 30.9091 11.1268C31.6686 11.1268 32.3969 11.4232 32.934 11.9508C33.471 12.4784 33.7727 13.194 33.7727 13.9402ZM13.7273 25.1938C13.7273 24.4476 14.029 23.732 14.566 23.2044C15.103 22.6768 15.8314 22.3804 16.5909 22.3804H45.2273C45.9868 22.3804 46.7151 22.6768 47.2522 23.2044C47.7892 23.732 48.0909 24.4476 48.0909 25.1938C48.0909 25.9399 47.7892 26.6555 47.2522 27.1832C46.7151 27.7108 45.9868 28.0072 45.2273 28.0072H16.5909C15.8314 28.0072 15.103 27.7108 14.566 27.1832C14.029 26.6555 13.7273 25.9399 13.7273 25.1938ZM16.5909 33.634C15.8314 33.634 15.103 33.9304 14.566 34.458C14.029 34.9856 13.7273 35.7012 13.7273 36.4474C13.7273 37.1935 14.029 37.9091 14.566 38.4367C15.103 38.9644 15.8314 39.2608 16.5909 39.2608H45.2273C45.9868 39.2608 46.7151 38.9644 47.2522 38.4367C47.7892 37.9091 48.0909 37.1935 48.0909 36.4474C48.0909 35.7012 47.7892 34.9856 47.2522 34.458C46.7151 33.9304 45.9868 33.634 45.2273 33.634H16.5909ZM16.5909 44.8876C15.8314 44.8876 15.103 45.184 14.566 45.7116C14.029 46.2392 13.7273 46.9548 13.7273 47.701C13.7273 48.4471 14.029 49.1627 14.566 49.6903C15.103 50.2179 15.8314 50.5144 16.5909 50.5144H25.1818C25.9413 50.5144 26.6697 50.2179 27.2067 49.6903C27.7437 49.1627 28.0455 48.4471 28.0455 47.701C28.0455 46.9548 27.7437 46.2392 27.2067 45.7116C26.6697 45.184 25.9413 44.8876 25.1818 44.8876H16.5909Z" fill="white" fill-opacity="0.75" shape-rendering="crispEdges"/>
</g>
<defs>
<filter id="filter0_d_271_875" x="0.5" y="0" width="60.8182" height="68.4546" filterUnits="userSpaceOnUse" color-interpolation-filters="sRGB">
<feFlood flood-opacity="0" result="BackgroundImageFix"/>
<feColorMatrix in="SourceAlpha" type="matrix" values="0 0 0 0 0 0 0 0 0 0 0 0 0 0 0 0 0 0 127 0" result="hardAlpha"/>
<feOffset dy="2"/>
<feGaussianBlur stdDeviation="3.75"/>
<feComposite in2="hardAlpha" operator="out"/>
<feColorMatrix type="matrix" values="0 0 0 0 0 0 0 0 0 0 0 0 0 0 0 0 0 0 1 0"/>
<feBlend mode="normal" in2="BackgroundImageFix" result="effect1_dropShadow_271_875"/>
<feBlend mode="normal" in="BackgroundImageFix" in2="effect1_dropShadow_271_875" result="BackgroundImageFix"/>
<feBlend mode="normal" in="SourceGraphic" in2="BackgroundImageFix" result="shape"/>
</filter>
</defs>
</svg>
