<svg width="62" height="60" viewBox="0 0 62 60" fill="none" xmlns="http://www.w3.org/2000/svg">
<g filter="url(#filter0_d_271_876)">
<path d="M50.42 5.50031H12.3073C11.8789 5.4944 11.4535 5.57243 11.0554 5.72995C10.6573 5.88747 10.2944 6.12139 9.98723 6.41835C9.68011 6.71532 9.43486 7.06951 9.26547 7.4607C9.09607 7.85189 9.00587 8.27242 9 8.69827V47.029C9.00587 47.4548 9.09607 47.8754 9.26547 48.2666C9.43486 48.6578 9.68011 49.0119 9.98723 49.3089C10.2944 49.6059 10.6573 49.8398 11.0554 49.9973C11.4535 50.1548 11.8789 50.2329 12.3073 50.227H50.42C50.8484 50.2329 51.2738 50.1548 51.6719 49.9973C52.07 49.8398 52.4329 49.6059 52.74 49.3089C53.0472 49.0119 53.2924 48.6578 53.4618 48.2666C53.6312 47.8754 53.7214 47.4548 53.7273 47.029V8.69827C53.7214 8.27242 53.6312 7.85189 53.4618 7.4607C53.2924 7.06951 53.0472 6.71532 52.74 6.41835C52.4329 6.12139 52.07 5.88747 51.6719 5.72995C51.2738 5.57243 50.8484 5.4944 50.42 5.50031ZM22.5667 42.9365H15.8171V22.8095H22.5667V42.9365ZM19.1919 19.9917C18.261 19.9917 17.3683 19.6242 16.7101 18.9699C16.0519 18.3157 15.6821 17.4283 15.6821 16.5031C15.6821 15.5778 16.0519 14.6905 16.7101 14.0362C17.3683 13.3819 18.261 13.0144 19.1919 13.0144C19.6862 12.9587 20.1867 13.0074 20.6608 13.1573C21.1348 13.3072 21.5716 13.5549 21.9427 13.8842C22.3137 14.2136 22.6106 14.6171 22.8139 15.0684C23.0171 15.5197 23.1222 16.0086 23.1222 16.5031C23.1222 16.9975 23.0171 17.4864 22.8139 17.9377C22.6106 18.389 22.3137 18.7925 21.9427 19.1219C21.5716 19.4512 21.1348 19.699 20.6608 19.8489C20.1867 19.9988 19.6862 20.0475 19.1919 19.9917ZM46.9102 42.9365H40.1606V32.135C40.1606 29.4291 39.1932 27.6624 36.7408 27.6624C35.9818 27.6679 35.2428 27.9045 34.6233 28.3404C34.0038 28.7762 33.5336 29.3903 33.276 30.1C33.1 30.6256 33.0237 31.1792 33.051 31.7325V42.9141H26.3014C26.3014 42.9141 26.3014 24.621 26.3014 22.7872H33.051V25.6273C33.6642 24.5698 34.556 23.6985 35.6304 23.1074C36.7048 22.5163 37.921 22.2277 39.1482 22.2728C43.6479 22.2728 46.9102 25.1577 46.9102 31.3523V42.9365Z" fill="white" fill-opacity="0.75" shape-rendering="crispEdges"/>
</g>
<defs>
<filter id="filter0_d_271_876" x="1.5" y="0" width="59.7273" height="59.7273" filterUnits="userSpaceOnUse" color-interpolation-filters="sRGB">
<feFlood flood-opacity="0" result="BackgroundImageFix"/>
<feColorMatrix in="SourceAlpha" type="matrix" values="0 0 0 0 0 0 0 0 0 0 0 0 0 0 0 0 0 0 127 0" result="hardAlpha"/>
<feOffset dy="2"/>
<feGaussianBlur stdDeviation="3.75"/>
<feComposite in2="hardAlpha" operator="out"/>
<feColorMatrix type="matrix" values="0 0 0 0 0 0 0 0 0 0 0 0 0 0 0 0 0 0 1 0"/>
<feBlend mode="normal" in2="BackgroundImageFix" result="effect1_dropShadow_271_876"/>
<feBlend mode="normal" in="BackgroundImageFix" in2="effect1_dropShadow_271_876" result="BackgroundImageFix"/>
<feBlend mode="normal" in="SourceGraphic" in2="BackgroundImageFix" result="shape"/>
</filter>
</defs>
</svg>
