<svg width="70" height="60" viewBox="0 0 70 60" fill="none" xmlns="http://www.w3.org/2000/svg">
<g filter="url(#filter0_d_271_873)">
<path d="M30.4666 5.5C16.1123 5.5 7.5 17.4272 7.5 23.3914C7.5 29.3556 10.3704 33.8284 16.1123 33.8284C21.8542 33.8284 24.7258 35.3186 24.7258 39.7914C24.7258 45.7544 29.0314 50.2273 34.7733 50.2273C53.4343 50.2273 62.0455 39.7914 62.0455 29.3556C62.0443 11.4642 47.6878 5.5 30.4666 5.5ZM26.878 11.4642C27.3499 11.4648 27.817 11.5617 28.2527 11.7493C28.6884 11.9369 29.0842 12.2116 29.4174 12.5576C29.7506 12.9037 30.0148 13.3143 30.1948 13.7661C30.3748 14.2179 30.4672 14.702 30.4666 15.1908C30.4666 17.2506 28.8598 18.9185 26.878 18.9185C24.8962 18.9185 23.2894 17.2495 23.2894 15.1908C23.2888 14.702 23.3812 14.2179 23.5612 13.7661C23.7412 13.3143 24.0054 12.9037 24.3386 12.5576C24.6719 12.2116 25.0676 11.9369 25.5033 11.7493C25.939 11.5617 26.4062 11.4648 26.878 11.4642ZM38.3596 11.4642C38.8314 11.4648 39.2986 11.5617 39.7343 11.7493C40.17 11.9369 40.5657 12.2116 40.899 12.5576C41.2322 12.9037 41.4964 13.3143 41.6764 13.7661C41.8564 14.2179 41.9487 14.702 41.9481 15.1908C41.9489 15.6796 41.8567 16.1639 41.6767 16.6158C41.4968 17.0677 41.2326 17.4785 40.8994 17.8247C40.5661 18.1708 40.1703 18.4456 39.7345 18.6333C39.2987 18.821 38.8315 18.9179 38.3596 18.9185C37.8877 18.9178 37.4206 18.8207 36.985 18.633C36.5493 18.4452 36.1537 18.1704 35.8205 17.8243C35.4874 17.4781 35.2234 17.0674 35.0435 16.6155C34.8636 16.1637 34.7714 15.6795 34.7722 15.1908C34.771 14.2039 35.1482 13.2569 35.8209 12.558C36.4937 11.8592 37.4068 11.4657 38.3596 11.4642ZM49.8434 17.4272C50.3155 17.4277 50.7828 17.5245 51.2187 17.7121C51.6546 17.8997 52.0506 18.1744 52.384 18.5206C52.7173 18.8668 52.9816 19.2777 53.1616 19.7297C53.3416 20.1817 53.4339 20.666 53.4331 21.155C53.4339 21.6439 53.3416 22.1281 53.1616 22.5801C52.9815 23.032 52.7173 23.4428 52.3839 23.7889C52.0505 24.135 51.6545 24.4096 51.2186 24.5971C50.7827 24.7846 50.3154 24.8812 49.8434 24.8815C49.3716 24.8811 48.9045 24.7843 48.4688 24.5967C48.033 24.4092 47.6373 24.1345 47.3041 23.7884C46.971 23.4423 46.7069 23.0316 46.5271 22.5797C46.3472 22.1279 46.2551 21.6437 46.256 21.155C46.2551 20.6661 46.3472 20.1819 46.527 19.73C46.7069 19.2781 46.9709 18.8673 47.3041 18.5211C47.6372 18.1749 48.033 17.9001 48.4687 17.7124C48.9044 17.5247 49.3715 17.4278 49.8434 17.4272ZM16.8305 20.4099C17.3022 20.4103 17.7693 20.5071 18.2049 20.6946C18.6405 20.8821 19.0362 21.1567 19.3694 21.5026C19.7025 21.8486 19.9666 22.2592 20.1465 22.7109C20.3264 23.1626 20.4187 23.6466 20.4179 24.1353C20.4179 26.1951 18.8111 27.863 16.8305 27.863C14.8498 27.863 13.2419 26.194 13.2419 24.1353C13.241 23.1484 13.6186 22.2015 14.2915 21.5029C14.9645 20.8043 15.8777 20.4111 16.8305 20.4099ZM34.7722 35.3186C37.1505 35.3186 39.0778 37.3196 39.0778 39.7926C39.0778 42.2621 37.1505 44.2643 34.7722 44.2643C32.3938 44.2643 30.4666 42.2621 30.4666 39.7926C30.4655 39.2059 30.5761 38.6248 30.7919 38.0824C31.0078 37.5401 31.3246 37.047 31.7245 36.6316C32.1243 36.2161 32.5993 35.8863 33.1222 35.661C33.6451 35.4357 34.2058 35.3193 34.7722 35.3186Z" fill="white" fill-opacity="0.75" shape-rendering="crispEdges"/>
</g>
<defs>
<filter id="filter0_d_271_873" x="0" y="0" width="69.5455" height="59.7273" filterUnits="userSpaceOnUse" color-interpolation-filters="sRGB">
<feFlood flood-opacity="0" result="BackgroundImageFix"/>
<feColorMatrix in="SourceAlpha" type="matrix" values="0 0 0 0 0 0 0 0 0 0 0 0 0 0 0 0 0 0 127 0" result="hardAlpha"/>
<feOffset dy="2"/>
<feGaussianBlur stdDeviation="3.75"/>
<feComposite in2="hardAlpha" operator="out"/>
<feColorMatrix type="matrix" values="0 0 0 0 0 0 0 0 0 0 0 0 0 0 0 0 0 0 1 0"/>
<feBlend mode="normal" in2="BackgroundImageFix" result="effect1_dropShadow_271_873"/>
<feBlend mode="normal" in="BackgroundImageFix" in2="effect1_dropShadow_271_873" result="BackgroundImageFix"/>
<feBlend mode="normal" in="SourceGraphic" in2="BackgroundImageFix" result="shape"/>
</filter>
</defs>
</svg>
