<svg width="68" height="62" viewBox="0 0 68 62" fill="none" xmlns="http://www.w3.org/2000/svg">
<g filter="url(#filter0_d_271_872)">
<path fill-rule="evenodd" clip-rule="evenodd" d="M35.2636 20.1759C33.9167 16.3015 34.7951 11.8266 37.8979 8.73446C40.4306 6.21051 43.8877 5.16356 47.1871 5.59409C47.6354 5.65287 48.0118 5.96012 48.1571 6.38683C48.3029 6.81402 48.1926 7.28613 47.8728 7.60485L43.3003 12.1611L45.1171 17.1683L50.1417 18.9779L54.7137 14.4217C55.0335 14.103 55.5072 13.9931 55.9359 14.1379C56.3641 14.2831 56.6724 14.6582 56.7309 15.105C57.1629 18.393 56.1119 21.8383 53.5797 24.3627C50.4764 27.4543 45.9865 28.3293 42.0983 26.987L18.0786 50.9244C17.1767 51.8232 15.953 52.3283 14.6771 52.3283C13.4011 52.3283 12.1779 51.8232 11.2755 50.9244L11.2444 50.8929C10.3425 49.9936 9.83515 48.7746 9.83515 47.5026C9.83515 46.2311 10.3425 45.0121 11.2444 44.1128L35.2636 20.1759ZM52.0784 41.1975C52.1676 41.294 52.2414 41.4058 52.2951 41.5291L55.3576 48.5586C55.6511 49.1942 55.5212 49.9444 55.0311 50.4423C54.5411 50.9421 53.7916 51.0874 53.1472 50.8078L45.9524 47.8849C45.821 47.8314 45.7016 47.7554 45.6 47.6622L52.0784 41.1975ZM44.1006 46.5211C44.069 46.4953 44.0383 46.4681 44.009 46.4385L34.6163 37.079L41.4509 30.2679L50.8432 39.6278C50.871 39.656 50.8974 39.6847 50.9219 39.7148L44.1006 46.5211ZM25.1372 27.6321L11.4951 14.0375C11.2727 13.8158 11.1475 13.5148 11.1475 13.2008C11.1475 12.8869 11.2727 12.5859 11.4951 12.3637L16.6506 7.2264C16.8731 7.0042 17.1752 6.87948 17.4902 6.87948C17.8053 6.87996 18.1073 7.0042 18.3303 7.2264L31.9714 20.8214L25.1372 27.6321Z" fill="white" fill-opacity="0.75" shape-rendering="crispEdges"/>
</g>
<defs>
<filter id="filter0_d_271_872" x="2.33515" y="0" width="61.9902" height="61.8282" filterUnits="userSpaceOnUse" color-interpolation-filters="sRGB">
<feFlood flood-opacity="0" result="BackgroundImageFix"/>
<feColorMatrix in="SourceAlpha" type="matrix" values="0 0 0 0 0 0 0 0 0 0 0 0 0 0 0 0 0 0 127 0" result="hardAlpha"/>
<feOffset dy="2"/>
<feGaussianBlur stdDeviation="3.75"/>
<feComposite in2="hardAlpha" operator="out"/>
<feColorMatrix type="matrix" values="0 0 0 0 0 0 0 0 0 0 0 0 0 0 0 0 0 0 1 0"/>
<feBlend mode="normal" in2="BackgroundImageFix" result="effect1_dropShadow_271_872"/>
<feBlend mode="normal" in="BackgroundImageFix" in2="effect1_dropShadow_271_872" result="BackgroundImageFix"/>
<feBlend mode="normal" in="SourceGraphic" in2="BackgroundImageFix" result="shape"/>
</filter>
</defs>
</svg>
