<svg preserveAspectRatio="none" width="100%" height="100%" overflow="visible" style="display: block;" viewBox="0 0 175.964 188.412" fill="none" xmlns="http://www.w3.org/2000/svg">
<g id="Group 12">
<g id="Group 2">
<path id="Ellipse" d="M127.127 118.28C127.59 118.345 128.166 118.755 128.696 118.9C130.438 119.378 131.296 119.715 132.549 120.127L134.139 120.485L134.901 122.086C135.025 122.426 135.163 122.794 135.327 123.212C136.459 126.088 140.539 134.299 138.896 135.04C138.896 135.04 138.896 135.04 138.896 135.04C138.88 135.048 138.863 135.054 138.846 135.06C138.52 135.172 137.858 134.616 137.456 134.67C137.055 134.725 134.805 135.835 134.221 134.884C133.391 133.498 132.394 129.725 132.016 128.956C131.757 128.431 131.253 127.868 130.908 127.203C130.351 126.127 129.981 125.284 129.566 124.493L131.145 125.809C130.272 125.647 129.413 125.551 128.287 125.591C127.521 125.066 126.755 124.541 125.989 124.015C124.852 123.89 123.286 123.06 122.611 122.918C122.058 122.801 121.674 122.972 121.099 122.842C120.727 122.759 120.264 122.553 119.713 122.346L118.833 122.109L118.528 121.326C118.411 120.911 118.266 120.456 118.055 119.993C117.241 118.197 116.484 118.13 115.954 117.07C115.404 115.97 115.014 114.068 114.198 112.712C114.055 112.559 113.911 112.406 113.768 112.253C113.667 112.447 113.566 112.64 113.465 112.834C113.092 112.136 113.28 111.691 113.009 111.02C112.691 110.229 112.224 109.952 112.006 109.421C112.005 109.418 112.003 109.414 112.002 109.41L110.699 106.062L114.026 105.111C114.475 104.979 115.154 105.038 115.726 104.845C116.568 104.562 116.271 104.259 116.707 104.051C116.881 103.969 120.188 102.733 120.377 102.672C121.818 102.212 122.096 102.666 123.262 102.354C124.743 101.957 126.209 101.446 127.643 100.906L125.45 104.709C124.938 102.972 124.384 101.278 123.926 99.6642C123.548 98.3336 123.255 96.9221 123.027 95.5612C124.799 97.3804 124.726 92.4712 123.115 94.6832C123.074 93.5772 122.667 92.7857 122.351 91.9061L121.748 89.0107L124.385 88.0131C124.721 87.8286 125.073 87.657 125.476 87.5248C126.37 87.2314 127.081 87.2545 128.323 86.7471C130.526 85.8451 132.639 84.1186 133.823 85.2282C136.319 83.9452 138.764 83.5375 139.214 81.9568C139.706 81.6932 141.006 81.6496 141.938 81.5505L140.368 85.2328C140.344 84.9661 140.311 84.7308 140.265 84.5577C140.148 83.8253 137.973 78.6248 137.453 77.8463C137.011 77.0363 136.169 75.6538 135.639 75.0736C134.969 74.3307 133.519 74.5784 133.743 72.2567C132.41 70.7318 131.988 70.1585 130.874 68.6278C130.671 68.3525 130.817 68.1667 130.682 68.0188C130.402 67.7145 129.798 67.321 129.269 66.8132C128.401 65.9798 128.233 65.1545 127.813 65.7896C127.154 65.3341 126.487 64.8947 125.813 64.4718C125.702 64.1811 125.587 63.8904 125.469 63.6001C125.044 63.4464 124.619 63.2984 124.193 63.157C125.273 62.6153 122.518 61.2761 122.906 62.3685C121.838 61.2672 120.718 60.2049 119.547 59.1864C120.206 58.4735 118.183 57.7072 117.182 57.7849C116.88 57.8043 116.673 57.8926 116.657 58.062C116.506 57.9755 116.354 57.8896 116.203 57.8046C115.022 56.7799 113.647 56.3801 112.037 55.421C110.413 54.4728 110.61 54.4474 110.288 53.702C109.861 53.5681 109.433 53.4394 109.003 53.3162C106.302 54.0278 107.545 51.5169 103.325 51.6227C102.323 50.342 99.0528 50.1919 96.9451 50.2421C96.6988 50.2453 96.6709 50.4331 96.3432 50.4527C95.5458 50.4882 93.5564 50.0814 93.5832 50.7044C92.9057 50.4795 92.2205 50.2672 91.5285 50.0678C90.9545 50.1612 90.3841 50.2635 89.8166 50.3745C89.8193 50.5659 89.822 50.7573 89.8247 50.9487C88.6905 50.2884 86.8954 50.6088 86.0073 50.5196C85.8295 50.5007 85.7733 50.2379 85.2177 50.2104C84.5679 50.1753 83.381 50.3765 82.609 50.3964C82.3505 50.7249 82.0967 51.0552 81.8477 51.3872C81.8127 51.3966 81.7782 51.4053 81.7443 51.4133C80.5061 51.7093 79.9157 51.0774 79.1326 51.1678C78.9846 51.1702 76.4185 51.7994 76.2889 51.865C75.1968 52.2962 75.6676 52.778 72.4614 53.6551C71.892 53.8184 71.3632 53.763 70.854 53.9394C69.941 54.2327 67.506 55.8199 67.5166 56.3568C66.2249 56.2592 63.606 57.8813 62.7537 58.1946C62.4917 58.2844 62.2471 57.981 61.4798 58.3434C60.8529 58.6338 59.531 59.8345 58.7952 60.2849C58.008 60.7581 57.5567 60.6944 57.2074 60.9193C56.8786 61.1334 56.7426 61.5548 56.3205 61.8754C55.0016 62.8728 53.5839 63.53 52.5956 64.4117C51.3831 65.4931 50.7282 66.9149 50.0698 68.1567C49.9517 68.3791 49.8331 68.5962 49.7104 68.8057C49.4115 69.0581 49.0329 69.2339 48.7614 69.5404C45.3826 73.3105 42.1208 78.0635 39.8578 82.6504C38.7181 84.7128 35.8744 90.0557 38.0264 89.0764C37.991 89.9074 35.8974 95.494 35.784 96.6514C35.5887 97.7722 35.7793 98.7036 35.6852 99.5844C35.6409 100.002 35.5977 100.4 35.5565 100.787C35.3451 102.867 35.1341 104.651 35.4412 107.393C35.5384 108.233 35.9604 109.106 35.9935 109.597C36.0317 110.189 35.7342 110.861 35.798 111.637C35.9272 113.488 36.6536 116.865 37.0437 118.595C37.1101 118.913 36.8348 119.1 36.8592 119.577C36.9478 121.439 37.6471 123.387 38.4745 122.722C38.6729 125.098 39.9718 126.916 40.9115 128.821C41.774 130.581 43.0078 132.941 44.4879 135.208C46.3988 138.173 48.7494 140.934 50.4443 142.381C52.3542 143.978 52.5668 143.635 55.0211 146.306C55.5759 146.892 56.1216 147.489 56.8327 148.169C58.4855 149.754 59.8357 151.643 61.8603 151.705C63.9207 153.249 65.8123 153.995 67.2056 155.561C67.4963 155.469 67.7853 155.374 68.0727 155.277C68.3632 155.398 68.654 155.517 68.9463 155.633C68.9622 155.85 68.9791 156.068 68.9971 156.285C70.0057 156.727 71.2338 157.003 72.4312 157.208C73.7129 157.431 74.9579 157.573 75.9058 157.827C78.9427 158.817 87.0918 160.142 90.1731 160.217C91.8017 160.335 91.8632 159.902 92.8415 160.712C93.2042 160.632 93.5657 160.549 93.9255 160.462C94.1394 160.258 94.3509 160.052 94.5599 159.845C96.622 159.663 99.1082 159.581 101.055 159.162C103.114 158.73 105.692 157.855 108.116 156.897C109.857 156.214 111.513 155.486 112.928 154.95C113.772 154.634 114.956 154.445 115.73 153.998C116.852 153.341 116.791 152.637 118.14 151.739C120.482 150.246 125.007 147.407 126.83 145.371C127.378 144.784 127.459 144.346 127.814 143.924C129.295 142.143 130.52 140.673 131.55 138.673C133.452 137.112 133.972 137.704 135.066 137.532C135.891 137.404 138.048 136.647 138.635 136.697C139.049 136.738 139.086 137.576 139.57 137.576C138.175 140.365 137.095 141.249 135.122 142.893C132.315 146.577 129.115 150.002 125.51 152.987C125.04 153.084 124.57 153.174 124.101 153.257C124.1 153.257 124.1 153.256 124.1 153.256C122.543 154.138 122.263 155.026 121.537 155.685C118.966 158.015 114.853 160.531 110.029 162.247C101.946 165.263 92.1661 165.742 85.836 165.132C83.6497 165.08 76.5355 164.186 75.1869 163.358C74.8333 163.17 74.8162 162.81 74.4241 162.689C73.2358 162.44 72.0533 162.154 70.8781 161.83C68.5012 161.176 66.1576 160.372 63.8654 159.421C57.2584 155.661 50.6673 151.291 45.4473 145.623C43.3464 143.346 41.4237 140.908 39.7019 138.337C32.2222 127.225 28.6854 113.556 29.8653 100.282C30.2292 96.0715 31.05 91.9063 32.3079 87.8849C33.4623 84.0916 35.2434 79.3223 37.3327 76.0177C38.2033 74.6369 39.0075 74.3524 39.8282 72.3529C39.9647 72.4169 40.1011 72.481 40.2374 72.5453C41.1164 70.9184 41.5368 69.7522 42.8054 68.0943C43.4402 67.2643 44.7612 65.6688 46.0252 64.3422C46.8815 63.4356 47.6995 62.6475 48.1696 62.2293C48.7723 61.6949 48.7448 62.1036 49.2915 61.5949C50.2162 60.7199 52.0564 58.6491 53.4865 57.5871C54.7646 56.6023 57.1859 55.3541 58.2111 54.6802C61.8745 52.2049 66.1051 49.6561 70.6815 48.2744C71.9428 47.8861 73.6661 47.7724 74.0568 47.6598C74.8229 47.432 74.9685 47.0354 75.4838 46.8623C76.954 46.3698 78.9682 46.0339 80.919 45.843C82.4395 45.6905 83.9205 45.6202 85.0925 45.537C93.8072 44.8752 103.216 46.0937 111.333 49.3082C113.732 50.2404 116.814 51.6297 119.734 53.3325C123.067 55.2528 126.161 57.5823 128.136 59.4194C128.936 60.1649 128.464 60.2691 129.15 60.8668C129.905 61.5335 130.48 61.7178 130.84 62.0272C133.403 64.0811 138.311 69.5216 139.724 72.3248C140.01 72.8456 139.987 73.3687 140.176 73.6645C140.271 73.8146 140.661 74.0461 140.97 74.5152C142.966 77.5594 144.227 80.2168 145.387 83.2126L146.379 85.5379L143.956 86.57C142.913 86.9685 141.835 87.3781 140.679 87.8225C136.218 89.5384 131.436 91.5439 126.608 93.5436L128.16 90.5727C129.198 94.8865 130.227 99.2319 131.094 103.413L131.662 105.675L129.348 106.44C129.277 106.461 129.206 106.481 129.135 106.501C127.174 107.058 125.662 106.9 125.39 106.99C124.792 107.187 124.525 107.689 123.337 108.158C121.109 109.036 118.364 109.824 115.714 110.59L117.3 107.221C118.081 109.208 118.844 111.139 119.596 112.73C120.447 114.532 121.962 116.866 122.813 118.634C122.918 118.851 123.035 119.116 123.161 119.413L120.915 117.48C122.642 117.891 125.273 118.658 125.888 118.615C126.33 118.586 126.623 118.212 127.127 118.28ZM129.774 86.5243C129.773 87.2712 132.276 85.6444 131.118 85.7091C130.857 85.7237 129.773 86.3306 129.774 86.5243ZM43.6106 74.2106C43.7889 74.3003 43.9671 74.3903 44.1452 74.4804C44.2857 74.1282 44.4303 73.7766 44.5788 73.4261C44.3607 73.5273 44.1429 73.6301 43.9251 73.735C43.8194 73.8931 43.7146 74.0516 43.6106 74.2106Z" fill="var(--stroke-0, #8A9E7E)"/>
<g id="Ellipse_2">
<circle cx="71.9588" cy="75.0931" r="3.72543" transform="rotate(32.0729 71.9588 75.0931)" fill="var(--fill-0, #8A9E7E)"/>
<path d="M79.4359 77.0167C79.4676 77.0861 79.1961 77.0965 79.1648 77.1557C79.0285 77.4071 78.8247 77.4458 78.6453 77.6348C78.4062 77.9089 78.1765 79.0259 76.6532 78.0347C76.6531 78.0347 76.6531 78.0347 76.6531 78.0347C76.6381 78.0253 76.623 78.0157 76.6077 78.006C76.3192 77.82 76.0332 77.5698 75.7044 77.3628C75.3755 77.156 73.2325 75.854 73.1203 75.7665C72.9728 75.6528 73.5856 75.8657 73.5739 75.8213C73.5632 75.7974 73.362 75.6886 73.3311 75.6574C73.2299 75.561 73.401 75.575 72.8207 75.3559C73.1363 75.4401 73.4556 75.5111 73.7778 75.5687C73.6393 75.5016 74.07 75.5474 74.0522 75.5156C74.0369 75.4923 73.7853 75.434 73.7764 75.4154C73.7649 75.3953 74.0453 75.4067 74.0091 75.3598C73.9505 75.2834 73.2801 75.213 73.1966 75.1852C73.11 75.1595 73.4774 75.1282 73.2403 75.0915C73.1663 75.0878 73.0922 75.0847 73.0181 75.0824C72.8507 75.087 72.6832 75.0905 72.5157 75.0929C72.4377 75.0876 72.7808 75.0774 72.7867 75.0663C72.7937 75.0534 72.4684 75.0663 72.4697 75.0623C72.471 75.0592 72.7306 75.0319 72.7135 75.0249C72.69 75.0157 72.3156 75.0578 72.2453 75.0631C72.2177 75.0623 72.0105 75.0825 72.0079 75.0856C71.9933 75.0884 72.4988 74.9857 72.5399 74.9629C72.6509 74.8956 72.2388 74.9781 72.092 75.0368C72.0253 75.0598 72.0533 75.0489 72.1258 75.0093C73.3369 74.4826 74.2104 73.9299 72.3772 74.8821C72.6326 74.7359 72.1352 74.9882 72.2163 74.9403C72.2678 74.9066 72.5097 74.753 72.4954 74.7445C72.46 74.7192 71.8159 75.2175 72.9683 74.3028C72.7393 74.4296 73.0907 74.025 72.1465 74.9168C72.0919 74.9743 72.6264 74.4145 72.683 74.3236C72.7494 74.2479 72.8744 73.897 72.8589 73.8634C72.8515 73.8337 72.8266 73.7911 72.7481 73.8761C72.7166 73.9101 72.6182 74.0514 72.5293 74.1826C72.3399 74.4545 72.2119 74.6936 72.7187 73.7565C72.6099 73.8416 72.6232 73.7978 72.6554 73.6102C72.6612 73.5763 72.7586 73.3638 72.7529 73.3609C72.7405 73.3552 72.6505 73.5042 72.6237 73.5157C72.5812 73.5351 72.7397 73.0692 72.4705 73.7706C72.4074 73.8813 72.3487 73.994 72.2949 74.1087C72.3377 73.97 72.3785 73.8307 72.4174 73.6909C72.3582 73.8378 72.3022 73.9858 72.2493 74.1349C72.579 73.0984 72.3183 73.691 72.1777 74.2997C72.2182 74.0775 72.2416 73.8513 72.2475 73.6233C72.4896 72.4107 72.1647 73.4644 72.0976 74.1346C72.095 74.1332 72.0924 74.1319 72.0897 74.1305C72.1035 73.8011 72.0488 74.0653 72.027 73.8435C71.9965 73.6214 72.0017 73.5015 71.9922 72.9328C71.9758 72.9652 71.9601 72.9977 71.9451 73.0303C71.9224 74.5894 71.8155 71.8918 71.7484 73.0973C71.5977 72.1274 71.4964 72.6624 71.4977 72.9679C71.4965 73.0035 71.5372 73.1892 71.5402 73.2486C71.5495 73.3906 71.4259 73.1706 71.5915 73.7611C71.5288 73.5944 71.4604 73.4295 71.3862 73.2668C71.402 73.3787 71.421 73.4898 71.443 73.6002C71.5053 73.7811 71.5676 73.9621 71.6299 74.1431C71.3955 73.5337 71.4316 73.788 71.3548 73.6514C71.3384 73.624 71.2357 73.3807 71.1907 73.3216C71.1371 73.2516 71.1338 73.3389 71.0754 73.2756C71.1938 73.5432 71.3161 73.8091 71.4424 74.0729C71.4948 74.2241 71.1226 73.5479 71.0693 73.5088C71.0597 73.5017 71.0199 73.5897 71.026 73.6059C71.0661 73.7354 71.4323 74.2805 71.3058 74.1977C71.2826 74.1831 71.138 74.007 71.1222 74.0076C71.0899 74.0113 71.3767 74.445 71.699 74.7971C71.2953 74.3568 71.4253 74.5699 71.2949 74.4576C71.2536 74.4242 70.9766 74.1636 70.9029 74.1242C70.8412 74.0937 71.0454 74.323 70.9965 74.3027C70.9419 74.2819 70.6849 74.0921 70.6598 74.0876C70.6363 74.0838 70.8363 74.2468 70.828 74.2555C70.7995 74.2789 70.4323 74.081 70.4018 74.1151C70.4014 74.1156 70.401 74.1161 70.4007 74.1167C70.3695 74.1746 70.9996 74.5878 71.2914 74.7541C71.2452 74.7357 71.0961 74.6675 71.0916 74.6732C71.0343 74.7357 70.8707 74.7733 70.6891 74.8527C70.6068 74.8616 69.558 74.959 71.2865 75.0405C71.5876 75.0575 70.8896 75.1135 70.8819 75.1549C70.8729 75.1783 71.1832 75.1657 71.1888 75.1752C71.2054 75.2035 70.9922 75.2821 71.2655 75.2641C71.337 75.2592 71.6933 75.1694 71.6894 75.1715C71.6842 75.1749 71.3456 75.2827 71.3273 75.2997C71.286 75.3383 71.409 75.3318 71.3609 75.3733C71.3514 75.3815 71.0695 75.515 70.9855 75.5652C70.6577 75.7632 70.7171 75.8025 71.5811 75.3069C71.1007 75.6063 71.5625 75.372 71.5914 75.3571C71.651 75.3355 71.552 75.5628 71.8311 75.2486C72.0034 75.0479 72.2423 74.6693 72.0249 74.9878C72.0219 74.9926 72.0188 74.9974 72.0156 75.0024C71.9711 75.0728 71.9167 75.1649 71.8726 75.2494C71.7474 75.4555 71.4439 76.2259 71.8626 75.3236C71.7783 75.5676 71.8373 75.3958 71.6109 76.2159C71.6759 76.0225 71.7386 75.8284 71.7991 75.6337C71.8033 75.6297 71.8075 75.6256 71.8115 75.6215C71.7596 75.8089 71.7086 75.9966 71.6585 76.1846C71.6991 76.2499 71.9007 75.4742 71.8988 75.4793C71.9072 75.491 71.9604 75.8065 72.0502 76.0609C72.0958 76.1962 72.0364 75.7837 72.1754 76.629C72.1765 76.5687 72.1765 76.5084 72.1754 76.4483C72.1508 76.2623 72.1242 76.0766 72.0954 75.8913C72.1185 75.8799 72.2233 76.155 72.2621 76.1407C72.3439 76.1099 72.1991 75.6113 72.3924 75.891C72.4431 75.9608 72.6559 76.2847 72.6732 76.2692C72.6979 76.247 72.3578 75.7027 72.3644 75.6838C72.3646 75.6624 72.9152 76.1765 72.9335 76.0776C72.9354 76.0524 72.7695 75.8804 72.7576 75.8559C72.7048 75.7526 72.7457 75.7333 72.4695 75.4872C72.9784 75.8335 73.634 76.2809 74.3099 76.7116C74.8173 77.0416 76.0585 77.7033 76.5239 77.9568C76.8484 78.1395 77.2185 78.4496 77.5775 78.6478C77.6802 79.0935 77.2859 79.021 76.69 78.848C76.4381 79.203 76.1447 79.534 75.817 79.8304C75.6448 79.6825 75.4758 79.5314 75.31 79.3774C75.3097 79.377 75.3094 79.3766 75.3091 79.3762C75.0356 79.2621 75.3276 79.7599 75.3277 79.9196C75.3105 81.5351 72.9791 81.3203 72.1325 81.1068C71.9394 81.0939 71.2315 81.35 71.1406 80.9613C71.118 80.8627 71.1588 80.5204 71.1266 80.5003C70.7858 80.6553 70.4135 80.778 70.0172 80.8606C69.6879 80.3772 69.275 80.2585 68.8171 80.1067C68.5815 80.0285 68.3406 79.9431 68.131 79.8096C66.4641 78.7854 65.2536 76.7413 65.485 74.6748C65.5227 74.2895 65.3539 73.7308 65.6217 73.3869C65.7333 73.2424 66.2772 73.3513 65.9513 73.0275C66.093 73.074 66.2346 73.1206 66.3762 73.1674C66.2616 72.9499 65.987 72.7174 66.0384 72.5115C66.0773 72.3397 66.2718 71.9143 66.4016 71.8151C66.4666 71.7615 66.6902 71.9304 66.7257 71.8696C66.7326 71.8573 66.7361 71.8409 66.7373 71.821C66.7435 71.672 66.6225 71.3143 66.7191 71.1859C66.8161 71.0534 67.2327 71.0525 67.2752 70.9364C67.4256 70.515 67.4867 69.8089 67.9724 69.6142C68.1061 69.5609 68.4492 69.7666 68.4756 69.7378C68.5295 69.6779 68.3631 69.3683 68.3878 69.2999C68.5185 68.9484 69.1176 69.1087 69.3649 69.025C70.1871 68.7282 71.0929 68.3891 71.9885 68.459C72.5412 68.4853 73.4952 68.582 73.8919 69.0006C73.9769 69.0879 73.8281 69.4437 73.9074 69.4708C73.9943 69.501 74.1332 69.2761 74.1837 69.2728C74.4949 69.2408 75.1715 69.3175 75.3756 69.6405C75.3963 69.6723 75.4121 69.7061 75.4223 69.7417C75.4436 69.8163 75.3099 70.0893 75.337 70.1063C75.3504 70.1154 75.4974 69.9667 75.5539 69.9807C76.0521 70.107 76.2574 70.4447 76.5246 70.8304C77.0281 71.5472 77.9046 72.2928 77.9819 73.2889C77.9991 73.5045 77.4495 73.7761 77.4609 73.7972C77.4853 73.8493 77.8851 73.7971 78.0072 73.9027C78.4145 74.2688 78.0359 74.8882 78.2196 75.2812C78.314 75.4782 78.7974 75.8114 78.8769 76.0513C78.9448 76.2431 78.6674 76.6104 78.8639 76.7365C78.984 76.8144 79.3991 76.9415 79.4359 77.0167ZM72.7644 74.545C73.3404 74.1593 72.8329 74.4387 72.5434 74.6736C72.4766 74.724 72.6141 74.6438 72.7644 74.545ZM69.9056 74.3685C70.0924 74.4338 70.2792 74.4993 70.4658 74.5651C70.3915 74.5283 70.3178 74.49 70.2447 74.4505C70.1312 74.4143 70.0172 74.3795 69.9029 74.3458C69.9037 74.3534 69.9046 74.361 69.9056 74.3685Z" fill="var(--stroke-0, #8A9E7E)"/>
</g>
<g id="Ellipse_3">
<circle cx="99.9915" cy="79.4699" r="3.72543" transform="rotate(32.0729 99.9915 79.4699)" fill="var(--fill-0, #8A9E7E)"/>
<path d="M107.469 81.3935C107.5 81.4629 107.229 81.4733 107.198 81.5325C107.061 81.784 106.857 81.8227 106.678 82.0117C106.439 82.2858 106.209 83.4027 104.686 82.4116C104.686 82.4115 104.686 82.4115 104.686 82.4115C104.671 82.4021 104.656 82.3926 104.64 82.3828C104.352 82.1969 104.066 81.9466 103.737 81.7397C103.408 81.5329 101.265 80.2308 101.153 80.1433C101.005 80.0297 101.618 80.2425 101.607 80.1982C101.596 80.1742 101.395 80.0654 101.364 80.0343C101.263 79.9379 101.434 79.9519 100.853 79.7327C101.169 79.817 101.488 79.888 101.811 79.9456C101.672 79.8784 102.103 79.9242 102.085 79.8925C102.07 79.8691 101.818 79.8108 101.809 79.7922C101.798 79.7721 102.078 79.7836 102.042 79.7367C101.983 79.6603 101.313 79.5898 101.229 79.562C101.143 79.5363 101.51 79.505 101.273 79.4684C101.199 79.4646 101.125 79.4616 101.051 79.4592C100.883 79.4639 100.716 79.4674 100.548 79.4697C100.47 79.4645 100.814 79.4542 100.819 79.4432C100.826 79.4303 100.501 79.4431 100.502 79.4391C100.504 79.436 100.763 79.4087 100.746 79.4017C100.723 79.3926 100.348 79.4346 100.278 79.44C100.25 79.4391 100.043 79.4593 100.041 79.4624C100.026 79.4653 100.531 79.3626 100.573 79.3397C100.684 79.2724 100.272 79.3549 100.125 79.4137C100.058 79.4367 100.086 79.4257 100.159 79.3862C101.37 78.8594 102.243 78.3068 100.41 79.259C100.665 79.1127 100.168 79.365 100.249 79.3171C100.301 79.2835 100.542 79.1299 100.528 79.1213C100.493 79.096 99.8486 79.5943 101.001 78.6796C100.772 78.8064 101.123 78.4018 100.179 79.2936C100.125 79.3511 100.659 78.7914 100.716 78.7005C100.782 78.6247 100.907 78.2739 100.892 78.2402C100.884 78.2105 100.859 78.1679 100.781 78.253C100.749 78.2869 100.651 78.4283 100.562 78.5595C100.373 78.8313 100.245 79.0704 100.751 78.1334C100.643 78.2185 100.656 78.1746 100.688 77.987C100.694 77.9532 100.791 77.7407 100.786 77.7378C100.773 77.732 100.683 77.881 100.656 77.8925C100.614 77.912 100.772 77.446 100.503 78.1475C100.44 78.2581 100.381 78.3708 100.328 78.4855C100.37 78.3469 100.411 78.2076 100.45 78.0677C100.391 78.2146 100.335 78.3627 100.282 78.5118C100.612 77.4753 100.351 78.0678 100.21 78.6765C100.251 78.4543 100.274 78.2282 100.28 78.0001C100.522 76.7875 100.197 77.8412 100.13 78.5114C100.128 78.5101 100.125 78.5087 100.122 78.5074C100.136 78.178 100.081 78.4421 100.06 78.2203C100.029 77.9983 100.034 77.8784 100.025 77.3097C100.008 77.342 99.9928 77.3745 99.9778 77.4072C99.9551 78.9662 99.8482 76.2686 99.7811 77.4742C99.6303 76.5043 99.5291 77.0393 99.5304 77.3448C99.5291 77.3803 99.5699 77.566 99.5729 77.6254C99.5822 77.7675 99.4586 77.5474 99.6242 78.138C99.5615 77.9712 99.4931 77.8063 99.4188 77.6437C99.4347 77.7555 99.4536 77.8667 99.4757 77.977C99.538 78.158 99.6003 78.339 99.6626 78.52C99.4281 77.9105 99.4643 78.1649 99.3875 78.0282C99.3711 78.0009 99.2684 77.7575 99.2234 77.6985C99.1698 77.6284 99.1664 77.7157 99.1081 77.6524C99.2265 77.9201 99.3488 78.1859 99.475 78.4498C99.5275 78.601 99.1552 77.9247 99.102 77.8857C99.0924 77.8786 99.0526 77.9666 99.0587 77.9827C99.0988 78.1122 99.465 78.6573 99.3385 78.5745C99.3153 78.5599 99.1707 78.3839 99.1549 78.3845C99.1225 78.3882 99.4094 78.8219 99.7317 79.174C99.328 78.7337 99.458 78.9468 99.3276 78.8345C99.2863 78.801 99.0093 78.5404 98.9356 78.5011C98.8739 78.4706 99.0781 78.6998 99.0291 78.6796C98.9746 78.6588 98.7176 78.4689 98.6925 78.4645C98.669 78.4607 98.869 78.6236 98.8607 78.6323C98.8322 78.6558 98.465 78.4579 98.4345 78.492C98.434 78.4924 98.4337 78.493 98.4334 78.4935C98.4021 78.5515 99.0323 78.9647 99.3241 79.131C99.2779 79.1125 99.1288 79.0443 99.1243 79.05C99.067 79.1125 98.9033 79.1501 98.7218 79.2296C98.6395 79.2384 97.5907 79.3358 99.3192 79.4173C99.6203 79.4344 98.9223 79.4904 98.9146 79.5318C98.9056 79.5551 99.2159 79.5425 99.2215 79.5521C99.2381 79.5803 99.0248 79.6589 99.2982 79.6409C99.3697 79.6361 99.7259 79.5462 99.7221 79.5484C99.7168 79.5517 99.3783 79.6596 99.36 79.6765C99.3187 79.7151 99.4417 79.7086 99.3936 79.7502C99.3841 79.7583 99.1022 79.8918 99.0181 79.942C98.6904 80.1401 98.7498 80.1793 99.6137 79.6837C99.1333 79.9832 99.5951 79.7488 99.6241 79.7339C99.6837 79.7123 99.5847 79.9397 99.8638 79.6255C100.036 79.4247 100.275 79.0462 100.058 79.3647C100.055 79.3694 100.051 79.3743 100.048 79.3792C100.004 79.4497 99.9494 79.5418 99.9053 79.6263C99.7801 79.8324 99.4766 80.6028 99.8953 79.7005C99.811 79.9444 99.87 79.7726 99.6436 80.5927C99.7086 80.3994 99.7713 80.2053 99.8318 80.0105C99.836 80.0065 99.8401 80.0025 99.8442 79.9984C99.7922 80.1858 99.7412 80.3735 99.6912 80.5614C99.7318 80.6268 99.9333 79.851 99.9314 79.8561C99.9399 79.8678 99.9931 80.1833 100.083 80.4377C100.128 80.5731 100.069 80.1606 100.208 81.0058C100.209 80.9455 100.209 80.8853 100.208 80.8251C100.184 80.6391 100.157 80.4535 100.128 80.2682C100.151 80.2568 100.256 80.5318 100.295 80.5175C100.377 80.4867 100.232 79.9881 100.425 80.2678C100.476 80.3377 100.689 80.6616 100.706 80.646C100.731 80.6239 100.39 80.0796 100.397 80.0606C100.397 80.0393 100.948 80.5534 100.966 80.4544C100.968 80.4292 100.802 80.2572 100.79 80.2328C100.738 80.1295 100.778 80.1101 100.502 79.864C101.011 80.2103 101.667 80.6578 102.343 81.0885C102.85 81.4185 104.091 82.0801 104.557 82.3337C104.881 82.5164 105.251 82.8264 105.61 83.0246C105.713 83.4704 105.319 83.3978 104.723 83.2249C104.471 83.5798 104.177 83.9109 103.85 84.2072C103.677 84.0593 103.508 83.9083 103.343 83.7542C103.342 83.7538 103.342 83.7534 103.342 83.7531C103.068 83.639 103.36 84.1367 103.36 84.2965C103.343 85.912 101.012 85.6972 100.165 85.4837C99.9721 85.4708 99.2642 85.7269 99.1733 85.3382C99.1507 85.2395 99.1915 84.8973 99.1593 84.8772C98.8185 85.0322 98.4462 85.1549 98.0499 85.2375C97.7206 84.754 97.3077 84.6354 96.8498 84.4835C96.6142 84.4054 96.3733 84.32 96.1636 84.1864C94.4968 83.1623 93.2863 81.1181 93.5177 79.0517C93.5554 78.6663 93.3866 78.1077 93.6544 77.7638C93.766 77.6193 94.3099 77.7281 93.984 77.4044C94.1257 77.4509 94.2673 77.4975 94.4089 77.5443C94.2943 77.3267 94.0196 77.0942 94.0711 76.8883C94.11 76.7166 94.3045 76.2911 94.4343 76.1919C94.4993 76.1383 94.7228 76.3072 94.7584 76.2464C94.7653 76.2342 94.7688 76.2177 94.77 76.1979C94.7762 76.0488 94.6552 75.6911 94.7517 75.5628C94.8488 75.4303 95.2654 75.4294 95.3079 75.3133C95.4583 74.8918 95.5194 74.1858 96.005 73.991C96.1388 73.9378 96.4819 74.1434 96.5083 74.1147C96.5622 74.0548 96.3958 73.7451 96.4205 73.6768C96.5512 73.3252 97.1503 73.4855 97.3976 73.4018C98.2198 73.1051 99.1256 72.7659 100.021 72.8359C100.574 72.8621 101.528 72.9588 101.925 73.3774C102.01 73.4647 101.861 73.8206 101.94 73.8477C102.027 73.8779 102.166 73.6529 102.216 73.6497C102.528 73.6176 103.204 73.6944 103.408 74.0173C103.429 74.0492 103.445 74.083 103.455 74.1186C103.476 74.1931 103.343 74.4661 103.37 74.4831C103.383 74.4922 103.53 74.3435 103.587 74.3575C104.085 74.4838 104.29 74.8216 104.557 75.2073C105.061 75.9241 105.937 76.6697 106.015 77.6657C106.032 77.8814 105.482 78.1529 105.494 78.174C105.518 78.2262 105.918 78.174 106.04 78.2796C106.447 78.6456 106.069 79.265 106.252 79.658C106.347 79.855 106.83 80.1882 106.91 80.4281C106.977 80.62 106.7 80.9873 106.897 81.1134C107.017 81.1913 107.432 81.3183 107.469 81.3935ZM100.797 78.9218C101.373 78.5362 100.866 78.8156 100.576 79.0504C100.509 79.1009 100.647 79.0206 100.797 78.9218ZM97.9382 78.7454C98.1251 78.8107 98.3118 78.8762 98.4985 78.9419C98.4242 78.9052 98.3505 78.8669 98.2774 78.8273C98.1639 78.7912 98.0499 78.7563 97.9355 78.7226C97.9364 78.7302 97.9373 78.7378 97.9382 78.7454Z" fill="var(--stroke-0, #8A9E7E)"/>
</g>
<g id="Ellipse_4">
<circle cx="72.5588" cy="138.264" r="5.3158" transform="rotate(32.0729 72.5588 138.264)" fill="var(--fill-0, #8A9E7E)"/>
<path d="M81.5765 140.584C81.6053 140.665 81.3294 140.691 81.2943 140.764C81.1413 141.072 80.9305 141.131 80.7325 141.37C80.4699 141.72 80.1272 143.043 78.6008 142.05C78.6007 142.05 78.6007 142.05 78.6007 142.05C78.5857 142.041 78.5706 142.031 78.5554 142.021C78.2673 141.835 77.9918 141.568 77.6646 141.358C77.3372 141.149 75.1932 139.849 75.0953 139.737C74.9691 139.588 75.6262 139.713 75.6229 139.648C75.6184 139.611 75.4246 139.485 75.401 139.436C75.3232 139.283 75.505 139.266 74.9414 138.994C75.2634 139.057 75.5888 139.107 75.9167 139.143C75.7857 139.047 76.226 139.05 76.2115 139.001C76.1991 138.964 75.9491 138.897 75.9429 138.864C75.9342 138.827 76.2189 138.813 76.1866 138.735C76.1342 138.609 75.4642 138.529 75.3831 138.472C75.2988 138.415 75.6682 138.334 75.4309 138.258C75.3568 138.249 75.2826 138.241 75.2085 138.234C75.0411 138.242 74.8737 138.249 74.7062 138.255C74.628 138.229 74.971 138.211 74.9762 138.181C74.9823 138.146 74.6564 138.148 74.6567 138.129C74.6573 138.114 74.9156 138.071 74.8971 138.048C74.8714 138.017 74.4974 138.064 74.4258 138.057C74.3982 138.051 74.1781 137.982 74.174 137.98C74.1525 137.945 74.6571 137.839 74.6917 137.786C74.7841 137.635 74.3456 137.634 74.1694 137.619C74.0897 137.609 74.1028 137.564 74.1602 137.493C75.3953 137.016 76.2152 136.353 74.4022 137.347C74.6401 137.165 74.1296 137.393 74.1921 137.313C74.2316 137.259 74.4649 137.091 74.4321 137.053C74.364 136.976 73.6795 137.422 74.821 136.493C74.548 136.564 74.857 136.114 73.895 136.987C73.8278 137.031 74.3285 136.438 74.37 136.333C74.4234 136.243 74.4328 135.796 74.3963 135.75C74.369 135.705 74.3089 135.639 74.2129 135.712C74.1742 135.742 74.0694 135.879 73.9738 136.006C73.7701 136.269 73.6264 136.498 74.1062 135.546C73.9505 135.604 73.9468 135.552 73.9338 135.343C73.9315 135.305 74.028 135.092 74.0174 135.087C73.9951 135.077 73.8884 135.218 73.8436 135.222C73.7716 135.229 73.913 134.757 73.6471 135.459C73.5645 135.562 73.4859 135.668 73.4121 135.775C73.4479 135.634 73.4818 135.493 73.5137 135.351C73.4438 135.494 73.377 135.639 73.3134 135.784C73.6558 134.751 73.3189 135.322 73.2031 135.938C73.2042 135.705 73.1878 135.469 73.1535 135.233C73.4013 134.021 72.9823 135.059 72.9232 135.731C72.9159 135.729 72.9086 135.727 72.9013 135.725C72.8746 135.39 72.7823 135.651 72.7108 135.426C72.6304 135.202 72.6403 135.083 72.6156 134.513C72.5875 134.546 72.56 134.578 72.5333 134.611C72.4491 136.171 72.3528 133.472 72.1807 134.687C71.9964 133.72 71.8128 134.267 71.7604 134.585C71.7529 134.622 71.7935 134.807 71.7882 134.869C71.7771 135.015 71.6019 134.809 71.7693 135.399C71.6889 135.237 71.6027 135.077 71.5109 134.92C71.5124 135.036 71.517 135.152 71.5248 135.268C71.5872 135.448 71.6496 135.629 71.7119 135.81C71.4487 135.211 71.4404 135.482 71.3419 135.355C71.3212 135.329 71.2175 135.086 71.1592 135.033C71.0899 134.97 71.0578 135.07 70.9811 135.016C71.0924 135.287 71.2077 135.556 71.3269 135.823C71.3471 135.991 70.9637 135.321 70.8918 135.292C70.8786 135.287 70.7787 135.41 70.7818 135.429C70.7961 135.575 71.1686 136.114 70.9694 136.083C70.9334 136.077 70.7785 135.909 70.7513 135.918C70.6986 135.937 70.9269 136.42 71.245 136.777C70.8179 136.356 70.889 136.627 70.7423 136.532C70.696 136.504 70.4177 136.245 70.3288 136.222C70.2548 136.205 70.4281 136.47 70.3647 136.467C70.2947 136.466 70.0323 136.283 70.0006 136.287C69.9707 136.291 70.165 136.462 70.1483 136.482C70.0934 136.541 69.7042 136.376 69.655 136.44C69.6543 136.441 69.6536 136.442 69.653 136.443C69.5952 136.544 70.2039 136.995 70.4765 137.199C70.4255 137.19 70.2718 137.131 70.2625 137.146C70.1447 137.331 69.9322 137.515 69.7259 137.729C69.6295 137.799 68.568 138.054 70.3002 138.094C70.5976 138.133 69.8979 138.349 69.8942 138.42C69.8871 138.474 70.1995 138.486 70.2078 138.519C70.2327 138.619 70.0274 138.748 70.3212 138.815C70.3981 138.833 70.7608 138.766 70.7607 138.781C70.7599 138.8 70.4264 138.925 70.4146 138.962C70.3881 139.048 70.5451 139.128 70.5177 139.213C70.512 139.229 70.2313 139.366 70.1527 139.427C69.8459 139.669 69.9322 139.756 70.7914 139.252C70.3414 139.606 70.8344 139.421 70.897 139.453C71.0248 139.533 71.0827 139.921 71.4483 139.67C71.674 139.51 71.9109 139.132 71.7767 139.504C71.7749 139.51 71.773 139.515 71.7711 139.521C71.7441 139.602 71.7076 139.705 71.685 139.802C71.6141 140.039 71.3623 140.835 71.8245 139.952C71.8039 140.223 71.9151 140.07 71.7378 140.906C71.8086 140.714 71.8772 140.522 71.9435 140.329C71.9559 140.327 71.9682 140.326 71.9804 140.324C71.931 140.512 71.8826 140.7 71.8351 140.889C71.9344 140.971 72.2119 140.211 72.261 140.223C72.3548 140.252 72.6316 140.573 72.803 140.815C72.8919 140.946 72.8348 140.533 72.9985 141.375C73.0092 141.313 73.0189 141.251 73.0274 141.19C73.0089 141.003 72.9882 140.816 72.9655 140.63C73.0437 140.609 73.2131 140.869 73.3031 140.84C73.4785 140.783 73.4693 140.229 73.7479 140.462C73.8201 140.52 74.0594 140.829 74.0972 140.801C74.1516 140.76 73.8187 140.212 73.862 140.168C73.926 140.105 74.5859 140.528 74.6542 140.377C74.6713 140.337 74.5123 140.158 74.5106 140.123C74.5003 139.974 74.5741 139.916 74.3339 139.623C74.881 139.918 75.5329 140.369 76.22 140.784C76.736 141.102 78.0023 141.725 78.471 141.973C78.798 142.152 79.1589 142.476 79.5214 142.669C79.5827 143.179 79.1693 143.133 78.5353 143.008C78.2123 143.453 77.838 143.866 77.4215 144.235C77.2412 144.094 77.064 143.949 76.8901 143.801C76.8898 143.801 76.8895 143.801 76.8892 143.8C76.5809 143.713 76.8577 144.222 76.8383 144.395C76.6418 146.154 73.8775 146.089 72.7778 145.868C72.5308 145.859 71.6477 146.104 71.5205 145.708C71.4884 145.608 71.5266 145.265 71.4844 145.244C71.0536 145.385 70.5926 145.486 70.1102 145.539C69.6642 145.017 69.1368 144.844 68.5726 144.625C68.2816 144.512 67.9878 144.389 67.728 144.215C65.6617 142.871 64.2314 140.31 64.4976 137.743C64.5409 137.26 64.3923 136.58 64.6855 136.145C64.8076 135.962 65.356 136.055 65.0468 135.682C65.1887 135.728 65.3305 135.774 65.4722 135.82C65.3727 135.56 65.1083 135.3 65.18 135.047C65.235 134.836 65.4817 134.309 65.6316 134.178C65.7067 134.108 65.9264 134.283 65.9715 134.207C65.9803 134.191 65.9861 134.171 65.9896 134.148C66.0141 133.969 65.9249 133.565 66.0445 133.406C66.1646 133.242 66.6233 133.19 66.686 133.051C66.9083 132.548 67.0569 131.762 67.6362 131.499C67.7956 131.427 68.173 131.61 68.2079 131.576C68.2781 131.505 68.1167 131.192 68.1526 131.117C68.3397 130.73 69.0315 130.842 69.3392 130.734C70.3571 130.353 71.4885 129.968 72.5963 130.039C73.2834 130.063 74.4586 130.196 74.9725 130.655C75.0828 130.751 74.9273 131.104 75.0278 131.139C75.1382 131.177 75.2897 130.957 75.351 130.958C75.7311 130.95 76.5452 131.095 76.8201 131.464C76.8481 131.5 76.8705 131.538 76.8865 131.578C76.92 131.66 76.795 131.939 76.8292 131.961C76.8463 131.972 77.0014 131.829 77.0692 131.851C77.6663 132.048 77.9386 132.444 78.2877 132.916C78.9481 133.798 79.9611 134.777 80.1053 136.003C80.1374 136.269 79.5957 136.575 79.6089 136.604C79.6369 136.671 80.0391 136.629 80.1676 136.767C80.597 137.239 80.2299 138.005 80.4094 138.501C80.5026 138.748 80.9801 139.152 81.0525 139.441C81.1157 139.673 80.8197 140.133 81.0115 140.276C81.129 140.364 81.543 140.496 81.5765 140.584ZM74.681 136.823C75.2612 136.443 74.7105 136.661 74.4373 136.919C74.3742 136.975 74.5297 136.92 74.681 136.823ZM69.0058 137.009C69.1929 137.074 69.3799 137.139 69.5668 137.204C69.4958 137.158 69.4255 137.11 69.3558 137.061C69.2404 137.03 69.1245 137.001 69.0082 136.972C69.0073 136.985 69.0065 136.997 69.0058 137.009Z" fill="var(--stroke-0, #8A9E7E)"/>
</g>
<g id="Ellipse_5">
<circle cx="98.3507" cy="131.199" r="3.72543" transform="rotate(32.0729 98.3507 131.199)" fill="var(--fill-0, #8A9E7E)"/>
<path d="M105.828 133.123C105.859 133.192 105.588 133.202 105.557 133.262C105.42 133.513 105.217 133.552 105.037 133.741C104.798 134.015 104.568 135.132 103.045 134.141C103.045 134.141 103.045 134.141 103.045 134.141C103.03 134.131 103.015 134.122 103 134.112C102.711 133.926 102.425 133.676 102.096 133.469C101.767 133.262 99.6244 131.96 99.5122 131.872C99.3646 131.759 99.9774 131.972 99.9658 131.927C99.9551 131.903 99.7538 131.795 99.7229 131.763C99.6218 131.667 99.7928 131.681 99.2126 131.462C99.5281 131.546 99.8474 131.617 100.17 131.675C100.031 131.608 100.462 131.653 100.444 131.622C100.429 131.598 100.177 131.54 100.168 131.521C100.157 131.501 100.437 131.513 100.401 131.466C100.342 131.389 99.672 131.319 99.5885 131.291C99.5019 131.266 99.8693 131.234 99.6322 131.198C99.5581 131.194 99.484 131.191 99.4099 131.188C99.2425 131.193 99.0751 131.197 98.9076 131.199C98.8296 131.194 99.1727 131.183 99.1785 131.172C99.1855 131.159 98.8603 131.172 98.8615 131.168C98.8629 131.165 99.1225 131.138 99.1054 131.131C99.0819 131.122 98.7075 131.164 98.6371 131.169C98.6095 131.168 98.4023 131.189 98.3997 131.192C98.3852 131.194 98.8906 131.092 98.9318 131.069C99.0427 131.002 98.6307 131.084 98.4839 131.143C98.4172 131.166 98.4451 131.155 98.5177 131.115C99.7288 130.589 100.602 130.036 98.7691 130.988C99.0244 130.842 98.5271 131.094 98.6081 131.046C98.6597 131.013 98.9016 130.859 98.8872 130.851C98.8519 130.825 98.2078 131.323 99.3602 130.409C99.1311 130.536 99.4826 130.131 98.5384 131.023C98.4838 131.08 99.0182 130.521 99.0749 130.43C99.1413 130.354 99.2663 130.003 99.2507 129.969C99.2433 129.94 99.2185 129.897 99.14 129.982C99.1084 130.016 99.01 130.157 98.9212 130.289C98.7317 130.56 98.6038 130.8 99.1106 129.863C99.0018 129.948 99.0151 129.904 99.0472 129.716C99.0531 129.682 99.1505 129.47 99.1447 129.467C99.1324 129.461 99.0424 129.61 99.0156 129.622C98.9731 129.641 99.1315 129.175 98.8624 129.877C98.7993 129.987 98.7406 130.1 98.6867 130.215C98.7295 130.076 98.7704 129.937 98.8093 129.797C98.7501 129.944 98.694 130.092 98.6412 130.241C98.9709 129.204 98.7102 129.797 98.5696 130.406C98.6101 130.183 98.6335 129.957 98.6393 129.729C98.8814 128.517 98.5565 129.57 98.4895 130.241C98.4869 130.239 98.4842 130.238 98.4816 130.237C98.4954 129.907 98.4406 130.171 98.4189 129.949C98.3884 129.727 98.3936 129.608 98.384 129.039C98.3676 129.071 98.3519 129.104 98.337 129.136C98.3143 130.695 98.2074 127.998 98.1403 129.203C97.9895 128.233 97.8883 128.768 97.8896 129.074C97.8883 129.11 97.9291 129.295 97.9321 129.355C97.9414 129.497 97.8178 129.277 97.9834 129.867C97.9207 129.7 97.8522 129.536 97.778 129.373C97.7939 129.485 97.8128 129.596 97.8348 129.706C97.8972 129.887 97.9595 130.068 98.0217 130.249C97.7873 129.64 97.8235 129.894 97.7467 129.757C97.7302 129.73 97.6276 129.487 97.5826 129.428C97.529 129.358 97.5256 129.445 97.4673 129.382C97.5856 129.649 97.708 129.915 97.8342 130.179C97.8867 130.33 97.5144 129.654 97.4611 129.615C97.4516 129.608 97.4118 129.696 97.4178 129.712C97.458 129.841 97.8242 130.387 97.6977 130.304C97.6745 130.289 97.5299 130.113 97.5141 130.114C97.4817 130.117 97.7686 130.551 98.0908 130.903C97.6872 130.463 97.8172 130.676 97.6868 130.564C97.6455 130.53 97.3685 130.27 97.2947 130.23C97.2331 130.2 97.4373 130.429 97.3883 130.409C97.3337 130.388 97.0768 130.198 97.0517 130.194C97.0281 130.19 97.2282 130.353 97.2199 130.362C97.1914 130.385 96.8242 130.187 96.7937 130.221C96.7932 130.222 96.7929 130.222 96.7926 130.223C96.7613 130.281 97.3915 130.694 97.6833 130.86C97.6371 130.842 97.488 130.774 97.4835 130.779C97.4262 130.842 97.2625 130.879 97.0809 130.959C96.9987 130.968 95.9498 131.065 97.6784 131.146C97.9795 131.164 97.2815 131.22 97.2738 131.261C97.2648 131.284 97.575 131.272 97.5807 131.281C97.5972 131.31 97.384 131.388 97.6573 131.37C97.7288 131.365 98.0851 131.275 98.0813 131.278C98.076 131.281 97.7375 131.389 97.7192 131.406C97.6779 131.444 97.8009 131.438 97.7527 131.479C97.7433 131.487 97.4614 131.621 97.3773 131.671C97.0496 131.869 97.1089 131.908 97.9729 131.413C97.4925 131.712 97.9543 131.478 97.9833 131.463C98.0429 131.441 97.9439 131.669 98.2229 131.355C98.3952 131.154 98.6342 130.775 98.4168 131.094C98.4137 131.099 98.4106 131.103 98.4075 131.108C98.3629 131.179 98.3086 131.271 98.2645 131.355C98.1393 131.562 97.8358 132.332 98.2545 131.43C98.1702 131.674 98.2291 131.502 98.0027 132.322C98.0677 132.129 98.1305 131.934 98.191 131.74C98.1952 131.736 98.1993 131.732 98.2034 131.728C98.1514 131.915 98.1004 132.103 98.0504 132.291C98.091 132.356 98.2925 131.58 98.2906 131.585C98.2991 131.597 98.3523 131.912 98.4421 132.167C98.4877 132.302 98.4283 131.89 98.5672 132.735C98.5683 132.675 98.5683 132.614 98.5673 132.554C98.5427 132.368 98.516 132.183 98.4873 131.997C98.5104 131.986 98.6151 132.261 98.654 132.247C98.7357 132.216 98.591 131.717 98.7843 131.997C98.835 132.067 99.0478 132.391 99.0651 132.375C99.0898 132.353 98.7497 131.809 98.7563 131.79C98.7564 131.768 99.307 132.283 99.3253 132.184C99.3272 132.158 99.1613 131.986 99.1494 131.962C99.0967 131.859 99.1376 131.839 98.8613 131.593C99.3703 131.94 100.026 132.387 100.702 132.818C101.209 133.148 102.45 133.809 102.916 134.063C103.24 134.246 103.61 134.556 103.969 134.754C104.072 135.2 103.678 135.127 103.082 134.954C102.83 135.309 102.537 135.64 102.209 135.936C102.037 135.788 101.868 135.637 101.702 135.483C101.702 135.483 101.701 135.483 101.701 135.482C101.427 135.368 101.719 135.866 101.72 136.026C101.702 137.641 99.371 137.426 98.5243 137.213C98.3312 137.2 97.6233 137.456 97.5324 137.067C97.5098 136.969 97.5506 136.626 97.5185 136.606C97.1776 136.761 96.8053 136.884 96.4091 136.967C96.0798 136.483 95.6668 136.365 95.209 136.213C94.9734 136.135 94.7324 136.049 94.5228 135.916C92.856 134.891 91.6454 132.847 91.8769 130.781C91.9145 130.395 91.7457 129.837 92.0135 129.493C92.1251 129.348 92.669 129.457 92.3432 129.134C92.4849 129.18 92.6265 129.227 92.7681 129.273C92.6535 129.056 92.3788 128.823 92.4303 128.617C92.4692 128.446 92.6637 128.02 92.7934 127.921C92.8585 127.867 93.082 128.036 93.1175 127.976C93.1244 127.963 93.128 127.947 93.1291 127.927C93.1354 127.778 93.0144 127.42 93.1109 127.292C93.208 127.159 93.6246 127.159 93.667 127.042C93.8174 126.621 93.8786 125.915 94.3642 125.72C94.4979 125.667 94.841 125.873 94.8675 125.844C94.9213 125.784 94.755 125.474 94.7797 125.406C94.9104 125.054 95.5095 125.215 95.7568 125.131C96.579 124.834 97.4848 124.495 98.3804 124.565C98.9331 124.591 99.887 124.688 100.284 125.107C100.369 125.194 100.22 125.55 100.299 125.577C100.386 125.607 100.525 125.382 100.576 125.379C100.887 125.347 101.563 125.424 101.767 125.746C101.788 125.778 101.804 125.812 101.814 125.848C101.835 125.922 101.702 126.195 101.729 126.212C101.742 126.221 101.889 126.073 101.946 126.087C102.444 126.213 102.649 126.551 102.916 126.936C103.42 127.653 104.296 128.399 104.374 129.395C104.391 129.611 103.841 129.882 103.853 129.903C103.877 129.955 104.277 129.903 104.399 130.009C104.806 130.375 104.428 130.994 104.611 131.387C104.706 131.584 105.189 131.917 105.269 132.157C105.337 132.349 105.059 132.716 105.256 132.843C105.376 132.92 105.791 133.047 105.828 133.123ZM99.1563 130.651C99.7322 130.265 99.2247 130.545 98.9353 130.78C98.8684 130.83 99.006 130.75 99.1563 130.651ZM96.2974 130.475C96.4843 130.54 96.671 130.605 96.8577 130.671C96.7834 130.634 96.7097 130.596 96.6366 130.556C96.523 130.52 96.4091 130.486 96.2947 130.452C96.2956 130.459 96.2965 130.467 96.2974 130.475Z" fill="var(--stroke-0, #8A9E7E)"/>
</g>
<g id="Ellipse_6">
<circle cx="59.02" cy="104.446" r="4.62246" transform="rotate(32.0729 59.02 104.446)" fill="var(--fill-0, #8A9E7E)"/>
<path d="M67.366 106.593C67.396 106.669 67.1221 106.689 67.0886 106.756C66.943 107.039 66.7352 107.089 66.5453 107.307C66.293 107.624 65.9995 108.856 64.4744 107.864C64.4744 107.864 64.4743 107.864 64.4743 107.864C64.4593 107.855 64.4442 107.845 64.429 107.836C64.1407 107.649 63.8606 107.389 63.5328 107.181C63.2047 106.973 61.0611 105.672 60.957 105.571C60.8215 105.437 61.4593 105.6 61.4524 105.545C61.4452 105.513 61.2481 105.395 61.2213 105.353C61.1333 105.225 61.3105 105.222 60.7396 104.973C61.0588 105.045 61.3815 105.104 61.707 105.149C61.5727 105.066 62.0088 105.088 61.9928 105.046C61.9792 105.015 61.7285 104.952 61.7211 104.925C61.7112 104.896 61.9941 104.893 61.9601 104.828C61.9049 104.724 61.2348 104.648 61.1526 104.604C61.0673 104.56 61.4358 104.501 61.1986 104.442C61.1245 104.436 61.0504 104.43 60.9763 104.424C60.8089 104.431 60.6414 104.437 60.474 104.441C60.3959 104.424 60.7389 104.409 60.7444 104.388C60.7509 104.363 60.4253 104.369 60.426 104.357C60.4269 104.347 60.6858 104.311 60.6679 104.295C60.6431 104.273 60.2689 104.318 60.1979 104.316C60.1703 104.313 59.9558 104.283 59.9524 104.283C59.9339 104.264 60.4389 104.16 60.4763 104.12C60.5768 104.006 60.1498 104.041 59.9865 104.058C59.9124 104.062 59.932 104.032 59.996 103.975C61.2206 103.476 62.0639 102.861 60.2422 103.837C60.4876 103.671 59.9828 103.909 60.0534 103.843C60.0982 103.798 60.3353 103.636 60.3105 103.611C60.2566 103.557 59.5898 104.025 60.736 103.103C60.4822 103.198 60.8097 102.768 59.8554 103.649C59.7937 103.699 60.3092 103.121 60.3573 103.022C60.4163 102.938 60.4761 102.533 60.4488 102.492C60.4301 102.454 60.3854 102.398 60.297 102.477C60.2615 102.508 60.1595 102.647 60.0668 102.776C59.8693 103.043 59.7325 103.276 60.224 102.33C60.0888 102.401 60.0925 102.352 60.0992 102.152C60.1004 102.116 60.1973 101.903 60.1889 101.899C60.1709 101.891 60.0715 102.036 60.0345 102.043C59.9754 102.055 60.1242 101.586 59.8569 102.288C59.7828 102.394 59.7129 102.503 59.6478 102.614C59.6866 102.474 59.7235 102.333 59.7585 102.192C59.6933 102.337 59.6311 102.483 59.5722 102.63C59.9091 101.595 59.6054 102.176 59.4788 102.788C59.4971 102.56 59.4981 102.329 59.4813 102.096C59.7266 100.884 59.3486 101.929 59.286 102.6C59.2807 102.598 59.2755 102.596 59.2702 102.595C59.2611 102.262 59.1853 102.524 59.1354 102.301C59.0768 102.077 59.0846 101.958 59.0666 101.389C59.0435 101.421 59.0212 101.454 58.9996 101.487C58.9422 103.046 58.8413 100.348 58.715 101.559C58.5453 100.59 58.3976 101.132 58.3686 101.445C58.3638 101.481 58.4045 101.667 58.4028 101.727C58.4006 101.872 58.2479 101.659 58.4145 102.25C58.3419 102.086 58.2634 101.924 58.1793 101.764C58.187 101.878 58.1979 101.992 58.2118 102.105C58.2742 102.286 58.3365 102.467 58.3989 102.648C58.1482 102.044 58.1593 102.308 58.0703 102.177C58.0514 102.151 57.9482 101.907 57.8957 101.852C57.8332 101.785 57.8136 101.88 57.745 101.822C57.8593 102.091 57.9777 102.359 58.1 102.625C58.1342 102.785 57.7557 102.113 57.6919 102.079C57.6803 102.073 57.6066 102.181 57.6109 102.199C57.6366 102.338 58.0063 102.879 57.8388 102.826C57.8084 102.816 57.658 102.645 57.6357 102.65C57.5919 102.662 57.8457 103.124 58.1657 103.478C57.7488 103.049 57.8456 103.295 57.7059 103.193C57.6618 103.162 57.3841 102.902 57.3018 102.872C57.2332 102.849 57.42 103.099 57.3629 103.088C57.2996 103.078 57.0396 102.893 57.0107 102.893C56.9836 102.894 57.1804 103.061 57.1674 103.076C57.124 103.12 56.7444 102.94 56.7033 102.991C56.7027 102.992 56.7022 102.993 56.7017 102.994C56.6555 103.076 57.2735 103.51 57.5545 103.698C57.5056 103.685 57.3539 103.621 57.3467 103.633C57.2553 103.764 57.064 103.884 56.8685 104.04C56.7783 104.083 55.7223 104.269 57.4529 104.327C57.752 104.357 57.053 104.503 57.0475 104.562C57.0396 104.602 57.3511 104.603 57.3582 104.626C57.3795 104.695 57.1707 104.802 57.4556 104.832C57.5301 104.839 57.8901 104.763 57.8883 104.772C57.8856 104.784 57.5498 104.902 57.5352 104.93C57.5023 104.995 57.6445 105.038 57.608 105.104C57.6007 105.116 57.3195 105.252 57.2385 105.308C56.9226 105.531 56.9971 105.597 57.8584 105.097C57.3951 105.427 57.8745 105.22 57.9225 105.232C58.0205 105.268 58.01 105.586 58.3379 105.307C58.5404 105.129 58.7781 104.751 58.6076 105.1C58.6053 105.105 58.6029 105.11 58.6004 105.116C58.5658 105.192 58.5215 105.291 58.4895 105.382C58.395 105.606 58.1206 106.39 58.5638 105.499C58.5155 105.758 58.6039 105.597 58.4052 106.426C58.4735 106.234 58.5395 106.04 58.6033 105.847C58.6121 105.844 58.6208 105.841 58.6295 105.839C58.579 106.026 58.5294 106.214 58.4808 106.403C58.5546 106.477 58.7989 105.71 58.8258 105.72C58.8824 105.741 59.0617 106.06 59.1975 106.307C59.2676 106.44 59.2095 106.027 59.3624 106.87C59.3689 106.809 59.3743 106.748 59.3787 106.687C59.3575 106.501 59.3343 106.315 59.3089 106.129C59.3631 106.112 59.5043 106.379 59.572 106.356C59.7066 106.311 59.6383 105.781 59.8797 106.034C59.9425 106.097 60.1703 106.413 60.1991 106.39C60.2406 106.358 59.9045 105.811 59.9318 105.778C59.968 105.733 60.5803 106.196 60.6268 106.068C60.6372 106.034 60.4752 105.858 60.4691 105.827C60.4403 105.699 60.4997 105.657 60.2438 105.385C60.7743 105.702 61.4278 106.152 62.11 106.573C62.6223 106.897 63.8776 107.536 64.3449 107.787C64.6707 107.967 65.0357 108.286 65.3967 108.481C65.476 108.963 65.0709 108.905 64.4535 108.759C64.1615 109.165 63.8225 109.542 63.4448 109.879C63.268 109.735 63.0943 109.588 62.924 109.437C62.9237 109.437 62.9234 109.437 62.9231 109.436C62.63 109.337 62.9133 109.841 62.9025 110.009C62.7841 111.705 60.2086 111.575 59.2192 111.357C58.9957 111.346 58.189 111.596 58.0776 111.203C58.0497 111.104 58.089 110.761 58.0511 110.74C57.6596 110.888 57.2372 110.998 56.7924 111.064C56.3973 110.559 55.9197 110.41 55.4019 110.22C55.1351 110.122 54.8643 110.016 54.6264 109.859C52.7343 108.655 51.3997 106.319 51.6508 103.97C51.6916 103.53 51.5342 102.903 51.8164 102.507C51.9339 102.341 52.4803 102.441 52.1639 102.089C52.3056 102.136 52.4474 102.182 52.589 102.228C52.483 101.987 52.2141 101.739 52.277 101.507C52.3249 101.313 52.5489 100.83 52.69 100.713C52.7607 100.65 52.9821 100.822 53.023 100.752C53.031 100.738 53.0358 100.72 53.0383 100.698C53.0548 100.532 52.9517 100.148 53.0613 100.003C53.1714 99.8524 53.6117 99.8226 53.6656 99.6939C53.8565 99.2265 53.967 98.4751 54.5055 98.242C54.6537 98.1781 55.0162 98.3709 55.0473 98.3391C55.1104 98.2732 54.9469 97.9619 54.9779 97.8896C55.1404 97.518 55.7918 97.6513 56.0731 97.5535C57.0057 97.2092 58.0387 96.8443 59.0541 96.9152C59.6826 96.9397 60.7613 97.0569 61.2241 97.4986C61.3234 97.5905 61.1708 97.9451 61.2621 97.9763C61.3622 98.0111 61.5082 97.7889 61.5648 97.7879C61.9149 97.7697 62.669 97.8845 62.9131 98.2337C62.9379 98.2681 62.9574 98.3043 62.9709 98.342C62.999 98.421 62.8703 98.6973 62.9014 98.717C62.9168 98.7275 63.0685 98.5819 63.1313 98.6004C63.6853 98.7664 63.9284 99.1372 64.2418 99.5716C64.8338 100.382 65.7873 101.259 65.9023 102.385C65.9279 102.628 65.3828 102.92 65.3952 102.945C65.4216 103.006 65.8228 102.959 65.9485 103.083C66.3683 103.509 65.9961 104.211 66.1775 104.662C66.2712 104.887 66.7512 105.26 66.8268 105.528C66.892 105.742 66.6041 106.162 66.7979 106.298C66.9166 106.381 67.3311 106.511 67.366 106.593ZM60.5681 103.395C61.1465 103.012 60.6147 103.257 60.3343 103.505C60.2696 103.558 60.4173 103.493 60.5681 103.395ZM56.1208 103.423C56.3078 103.488 56.4947 103.553 56.6815 103.618C56.609 103.576 56.5372 103.533 56.4661 103.488C56.3515 103.455 56.2364 103.423 56.121 103.392C56.1208 103.402 56.1208 103.412 56.1208 103.423Z" fill="var(--stroke-0, #8A9E7E)"/>
</g>
<g id="Ellipse_7">
<circle cx="89.4594" cy="101.296" r="6.39062" transform="rotate(32.0729 89.4594 101.296)" fill="var(--fill-0, #8A9E7E)"/>
<path d="M99.5184 103.884C99.5451 103.972 99.2663 104.01 99.2285 104.092C99.0644 104.438 98.8487 104.511 98.6382 104.784C98.3598 105.185 97.9406 106.647 96.4122 105.653C96.4121 105.653 96.4121 105.653 96.4121 105.653C96.3971 105.643 96.382 105.634 96.3668 105.624C96.079 105.437 95.8106 105.158 95.4844 104.947C95.158 104.736 93.0134 103.437 92.9252 103.309C92.8134 103.137 93.5005 103.202 93.5029 103.123C93.5026 103.077 93.3137 102.94 93.2951 102.879C93.233 102.687 93.4221 102.649 92.8697 102.342C93.1962 102.39 93.5257 102.425 93.8574 102.447C93.7315 102.333 94.1782 102.307 94.166 102.246C94.1556 102.199 93.9066 102.126 93.9021 102.083C93.8955 102.035 94.1831 102.003 94.1534 101.905C94.1051 101.745 93.4355 101.66 93.3559 101.581C93.2733 101.503 93.644 101.39 93.4064 101.287C93.3323 101.274 93.2582 101.263 93.184 101.252C93.0166 101.263 92.8492 101.272 92.6818 101.281C92.6035 101.242 92.9463 101.217 92.951 101.175C92.9567 101.125 92.6303 101.12 92.63 101.091C92.63 101.068 92.8875 101.014 92.8679 100.981C92.8408 100.933 92.4671 100.984 92.3945 100.969C92.367 100.96 92.1382 100.83 92.1331 100.825C92.1069 100.764 92.611 100.656 92.6411 100.583C92.7209 100.376 92.2645 100.317 92.0685 100.253C91.98 100.221 91.9831 100.153 92.0302 100.06C93.2815 99.6176 94.0653 98.8796 92.2659 99.901C92.492 99.696 91.9725 99.9072 92.0225 99.8054C92.0538 99.737 92.2814 99.5593 92.2361 99.5024C92.1459 99.391 91.4342 99.8003 92.5682 98.8626C92.2655 98.895 92.5459 98.4146 91.5718 99.2752C91.4961 99.3104 91.974 98.6947 92.0053 98.5805C92.0499 98.4801 91.9811 97.9685 91.9305 97.9133C91.8897 97.8591 91.8058 97.7761 91.6979 97.8424C91.6545 97.8687 91.5454 98.0032 91.4451 98.1272C91.2318 98.3842 91.0775 98.6069 91.539 97.6439C91.3516 97.6848 91.3365 97.6264 91.293 97.4024C91.2851 97.3621 91.381 97.1489 91.3672 97.1423C91.3382 97.1288 91.2201 97.2651 91.1632 97.2639C91.0712 97.2624 91.2011 96.7858 90.9375 97.4893C90.8417 97.5871 90.7496 97.6876 90.6624 97.7908C90.6935 97.6481 90.7226 97.5049 90.7498 97.3611C90.6727 97.5021 90.5986 97.6445 90.5276 97.788C90.8787 96.7575 90.4903 97.3133 90.3912 97.9339C90.3657 97.6933 90.3225 97.4514 90.261 97.2102C90.5126 95.9984 90.0301 97.0256 89.9762 97.6986C89.9658 97.6962 89.9554 97.6937 89.945 97.6914C89.8909 97.353 89.7733 97.6108 89.668 97.3845C89.554 97.1586 89.567 97.0399 89.5321 96.4705C89.496 96.5026 89.4606 96.5351 89.426 96.5679C89.3002 98.1295 89.2111 95.4281 88.968 96.6499C88.761 95.6852 88.5218 96.2404 88.4331 96.5663C88.4213 96.6042 88.4619 96.7899 88.4509 96.8525C88.426 97.0018 88.216 96.8045 88.3847 97.3945C88.2922 97.236 88.1941 97.0798 88.0904 96.9263C88.0821 97.0457 88.0771 97.1648 88.0752 97.2833C88.1377 97.4642 88.2001 97.6452 88.2625 97.8261C87.9799 97.233 87.9414 97.516 87.8283 97.3948C87.8047 97.3705 87.7004 97.1277 87.633 97.0783C87.5532 97.0194 87.5015 97.1287 87.4126 97.0803C87.5191 97.3537 87.6296 97.6254 87.744 97.8952C87.7424 98.0738 87.3514 97.408 87.2669 97.3863C87.2514 97.3818 87.1109 97.5294 87.1118 97.5495C87.1087 97.7071 87.4855 98.2418 87.2372 98.2455C87.1925 98.2466 87.0307 98.0835 86.9958 98.0988C86.9293 98.1276 87.1181 98.644 87.4334 99.0032C86.9904 98.5964 87.0217 98.9057 86.8639 98.8236C86.8142 98.799 86.5351 98.5403 86.436 98.5287C86.3535 98.5206 86.5061 98.8093 86.433 98.8192C86.3525 98.8303 86.0864 98.6524 86.0502 98.6624C86.016 98.6724 86.2064 98.848 86.1841 98.8759C86.1114 98.9592 85.7073 98.8166 85.6454 98.9006C85.6445 98.9019 85.6436 98.9031 85.6429 98.9045C85.5671 99.0336 86.1613 99.5111 86.4209 99.7398C86.3667 99.7369 86.2099 99.684 86.1973 99.7063C86.0386 99.9734 85.793 100.257 85.57 100.561C85.4641 100.674 84.3941 101.035 86.1287 101.046C86.4237 101.1 85.7228 101.424 85.7218 101.516C85.716 101.591 86.0299 101.618 86.0399 101.668C86.0704 101.816 85.8705 101.979 86.1782 102.104C86.2587 102.136 86.6258 102.086 86.6282 102.11C86.6304 102.139 86.3002 102.275 86.2928 102.325C86.2763 102.444 86.4565 102.583 86.443 102.697C86.4398 102.719 86.16 102.857 86.085 102.926C85.7924 103.198 85.8968 103.317 86.7529 102.807C86.3234 103.198 86.8375 103.046 86.9228 103.11C87.0966 103.26 87.2607 103.756 87.6847 103.547C87.9466 103.415 88.1821 103.036 88.1041 103.445C88.1031 103.451 88.1021 103.458 88.101 103.464C88.0858 103.553 88.0613 103.663 88.0533 103.768C88.0192 104.026 87.8022 104.839 88.2939 103.968C88.3164 104.259 88.4628 104.118 88.3187 104.964C88.3934 104.774 88.4659 104.583 88.5362 104.391C88.5541 104.391 88.5719 104.391 88.5897 104.391C88.542 104.579 88.4953 104.768 88.4495 104.957C88.5886 105.05 88.9173 104.301 89.001 104.318C89.1524 104.359 89.5803 104.683 89.8069 104.917C89.9251 105.045 89.8695 104.631 90.0499 105.471C90.0672 105.408 90.0833 105.346 90.0984 105.283C90.0839 105.095 90.0673 104.908 90.0486 104.721C90.1642 104.694 90.3773 104.944 90.5018 104.904C90.7405 104.831 90.8229 104.239 91.1591 104.44C91.2459 104.49 91.5031 104.789 91.5547 104.752C91.6292 104.7 91.3012 104.148 91.3692 104.088C91.4763 103.996 92.2102 104.358 92.3123 104.172C92.3396 104.122 92.1853 103.938 92.1905 103.895C92.2089 103.717 92.3049 103.632 92.0891 103.307C92.6619 103.568 93.3113 104.022 94.0061 104.425C94.5279 104.735 95.8111 105.332 96.2821 105.576C96.6107 105.752 96.9655 106.087 97.3303 106.276C97.3637 106.829 96.9373 106.8 96.2775 106.709C95.9065 107.214 95.4776 107.683 95.0011 108.101C94.8153 107.964 94.6326 107.824 94.4531 107.68C94.4528 107.68 94.4525 107.679 94.4522 107.679C94.1205 107.61 94.3868 108.126 94.3544 108.308C94.0367 110.164 90.9797 110.201 89.7091 109.974C89.4256 109.969 88.4242 110.206 88.2724 109.805C88.2339 109.704 88.2703 109.361 88.2213 109.338C87.7298 109.47 87.2088 109.556 86.6681 109.59C86.1433 109.041 85.5385 108.832 84.9025 108.568C84.574 108.432 84.2446 108.283 83.9509 108.081C81.6145 106.521 80.0357 103.611 80.3255 100.705C80.3724 100.157 80.2376 99.3945 80.5479 98.8973C80.6771 98.689 81.2286 98.7708 80.9307 98.3647C81.0726 98.4103 81.2146 98.4561 81.3564 98.502C81.2671 98.2124 81.0097 97.9348 81.0951 97.6503C81.1609 97.4123 81.4429 96.8171 81.6063 96.6645C81.6882 96.5826 81.9054 96.762 81.9569 96.6749C81.9671 96.6575 81.9743 96.6351 81.9794 96.6088C82.0162 96.4105 81.9485 95.9744 82.0837 95.7946C82.2194 95.6094 82.7065 95.5227 82.7829 95.3691C83.0538 94.8113 83.2615 93.9703 83.9042 93.6617C84.0809 93.5769 84.4816 93.7443 84.5221 93.7065C84.6034 93.6288 84.4454 93.3141 84.4888 93.2341C84.7141 92.8229 85.4684 92.9031 85.8169 92.7775C86.9671 92.3393 88.2509 91.9239 89.5022 91.9965C90.28 92.0177 91.6048 92.1752 92.198 92.6623C92.3254 92.7633 92.1653 93.1155 92.2801 93.1548C92.4064 93.1987 92.5665 92.9818 92.635 92.9854C93.0617 92.9945 93.9688 93.1843 94.2914 93.5851C94.3243 93.6246 94.3513 93.6654 94.3712 93.7075C94.4129 93.7952 94.2938 94.078 94.3329 94.1031C94.3524 94.1163 94.513 93.9768 94.5884 94.004C95.2523 94.2484 95.57 94.6843 95.9743 95.2147C96.7409 96.2085 97.8461 97.345 98.0355 98.7267C98.0777 99.0261 97.5414 99.3561 97.5557 99.3891C97.5861 99.4676 97.99 99.4321 98.1228 99.5913C98.5672 100.135 98.2078 101 98.3845 101.565C98.4769 101.848 98.9504 102.298 99.018 102.621C99.0781 102.879 98.7694 103.402 98.958 103.557C99.0739 103.652 99.487 103.787 99.5184 103.884ZM92.4714 99.2518C93.0545 98.8756 92.4746 99.0525 92.2124 99.3258C92.1518 99.3847 92.3195 99.3479 92.4714 99.2518ZM84.8929 99.6828C85.0801 99.747 85.2673 99.8114 85.4543 99.8761C85.3855 99.8238 85.3175 99.7699 85.2503 99.715C85.1335 99.6875 85.0162 99.6614 84.8987 99.6364C84.8967 99.6519 84.8947 99.6674 84.8929 99.6828Z" fill="var(--stroke-0, #8A9E7E)"/>
</g>
</g>
<g id="Group 1">
<path id="Ellipse_8" d="M92.6882 16.4284C92.8044 16.5704 92.6595 16.896 92.7192 17.0918C92.9609 17.926 92.871 18.294 92.9189 19.0727C93.1413 20.2339 93.0094 23.632 91.1914 23.1074C91.1913 23.1074 91.1913 23.1073 91.1912 23.1073C91.1741 23.1032 91.1568 23.0987 91.1393 23.094C90.8091 23.0011 90.4939 22.6989 90.1192 22.5906C89.7445 22.483 87.2932 21.965 87.1874 21.7609C87.0633 21.4719 87.7387 20.8703 87.6945 20.6989C87.6712 20.5941 87.4356 20.4869 87.382 20.3719C87.2072 20.0076 87.3107 19.7402 86.62 19.6149C86.8884 19.3888 87.1407 19.1335 87.3751 18.8545C87.1566 18.7259 87.3885 18.2404 87.2926 18.123C87.2172 18.0307 86.9636 18.1094 86.8924 18.0176C86.8122 17.9172 86.9306 17.5883 86.7481 17.4089C86.4417 17.1085 85.8733 17.4845 85.657 17.3578C85.4366 17.2322 85.4352 16.6875 85.0343 16.6213C84.9527 16.6442 84.8713 16.6676 84.79 16.6913C84.6931 16.8309 84.5952 16.9699 84.4964 17.108C84.3306 17.0525 84.5193 16.7573 84.4137 16.6478C84.2914 16.5213 84.0033 16.6986 83.9164 16.6175C83.8457 16.5512 83.9154 16.2635 83.8086 16.1921C83.6512 16.0852 83.4365 16.398 83.3143 16.3862C83.2668 16.3776 82.5561 16.0649 82.5164 16.0411C82.2454 15.8475 82.543 15.4267 82.3536 15.2267C81.8247 14.6741 80.9394 14.5653 80.2579 14.3006C79.958 14.1852 79.6846 13.9709 79.4644 13.7316C80.6096 12.8984 80.2021 11.4176 79.4516 13.3888C79.3024 12.9454 78.7874 13.2805 78.5468 13.0203C78.3913 12.8517 78.4015 12.5216 78.1285 12.364C77.635 12.0808 76.6798 12.46 77.2885 11.1108C76.5666 10.9844 76.3356 10.2332 75.4662 11.2302C75.2734 11.21 75.2769 10.3186 75.1557 10.1277C75.0406 9.94633 73.9654 8.92984 73.771 8.79762C73.5772 8.66494 73.2269 8.44173 72.9952 8.44142C72.7077 8.44043 71.8958 9.52844 72.2823 7.93758C71.7629 7.78991 71.6309 7.66339 71.2991 7.26511C71.239 7.19306 71.3456 6.98474 71.3011 6.95924C71.2098 6.90753 70.9641 6.96685 70.793 6.89399C70.509 6.77253 70.598 6.25725 70.2569 6.92767C70.0174 6.93646 69.7768 6.94458 69.5352 6.95199C69.539 6.88185 69.5429 6.81169 69.5467 6.74153C69.5575 6.65314 69.5678 6.56462 69.5776 6.47597C69.4191 6.56849 69.2644 6.66441 69.1138 6.76364C69.7138 5.84747 68.8527 6.13209 68.7629 6.78496C68.5797 6.44482 68.3999 6.12062 68.1741 5.79595C68.6457 4.64539 67.5381 5.43027 67.4359 6.10818C67.4044 6.09804 67.3731 6.08817 67.342 6.07857C67.1508 5.68612 66.8277 5.88798 66.5251 5.62327C66.2053 5.36066 66.2505 5.25038 66.1752 4.67335C66.0796 4.69931 65.9861 4.72732 65.8947 4.75723C65.4603 6.31565 65.4329 3.59222 64.7089 4.88767C64.2936 3.95325 63.6622 4.63155 63.3842 5.06565C63.3489 5.11584 63.4158 5.29366 63.377 5.37184C63.2845 5.55577 62.8117 5.50697 63.0955 6.05297C62.8988 5.9517 62.694 5.85871 62.4815 5.77473C62.4338 5.92952 62.3903 6.08507 62.3532 6.23962C62.455 6.40172 62.5567 6.56384 62.6584 6.72598C62.1274 6.28598 61.9584 6.71043 61.7256 6.69449C61.6776 6.69156 61.5107 6.48604 61.3729 6.50293C61.2109 6.52128 61.0624 6.74699 60.8826 6.7976C61.028 7.05976 61.1787 7.31795 61.3331 7.57353C61.2432 7.87391 60.6312 7.39632 60.4634 7.48154C60.4318 7.49389 60.0789 7.95948 60.0738 7.99574C60.006 8.27927 60.5488 8.63396 60.0042 9.11045C59.9073 9.19691 59.662 9.14688 59.5853 9.23866C59.4437 9.40205 59.5308 10.2132 59.9166 10.5015C59.2785 10.3889 59.1522 11.1027 58.9117 11.1972C58.8368 11.2259 58.4933 11.0606 58.334 11.1947C58.203 11.3044 58.3034 11.7958 58.178 11.9514C58.042 12.117 57.7198 12.0586 57.6611 12.1376C57.6061 12.2126 57.8115 12.3888 57.7642 12.4998C57.6135 12.843 57.1038 13.0237 56.9953 13.3132C56.8373 13.7329 57.4531 14.3327 57.6889 14.7527C57.6181 14.823 57.4376 14.8636 57.4131 14.952C57.3877 15.0422 57.3621 15.133 57.3364 15.2243C57.0385 16.2806 56.7293 17.3933 56.5709 18.3462C56.4589 18.8051 55.6065 20.1288 57.2699 19.538C57.5662 19.621 57.1456 20.6545 57.2474 20.8315C57.3153 20.9939 57.6501 20.9514 57.7167 21.0461C57.922 21.3312 57.9416 21.7041 58.5002 21.8196C58.6445 21.8464 58.9725 21.6307 59.0276 21.6737C59.0933 21.7266 58.9827 22.0795 59.0878 22.1694C59.3194 22.3772 59.9497 22.5466 60.2543 22.7211C60.3095 22.7547 60.2249 23.0562 60.2808 23.18C60.5006 23.6656 60.9659 23.7623 61.1571 22.7812C61.4693 23.4589 62.0653 23.0648 62.5195 23.1166C63.4859 23.2515 65.4205 23.6476 66.3748 23.2446C66.9373 23.016 66.9463 22.6187 67.6495 22.8628L68.5764 22.9727C68.6313 23.0069 68.6898 23.0465 68.7525 23.0922C68.9322 23.2231 69.1033 23.382 69.3192 23.5365C69.8219 23.8991 70.1786 24.8216 70.8122 23.9385C71.3919 24.3234 71.9165 24.2387 72.2314 25.1614C72.3234 24.9709 72.4146 24.7802 72.5051 24.5894C72.5825 24.5982 72.6568 24.6064 72.7363 24.6154C72.7267 24.8112 72.7173 25.007 72.7082 25.2029C73.2618 25.3541 74.0858 24.6743 74.5371 24.7431C75.3139 24.8745 77.2391 25.3781 77.9544 25.6571C78.3353 25.8125 78.3651 25.3952 78.5646 26.2567C78.6525 26.199 78.7372 26.1408 78.8245 26.0822C78.8814 25.8953 78.9368 25.7083 78.9906 25.521C79.4699 25.5167 80.0397 25.7918 80.4928 25.7574C81.332 25.7021 82.3741 25.0201 83.1269 25.1445C83.3248 25.1771 83.6545 25.4772 83.8279 25.4094C84.073 25.3117 83.8895 24.6955 84.1415 24.5679C84.5618 24.3741 85.7142 24.4854 86.0079 24.0761C86.0912 23.9655 85.9534 23.7599 85.9903 23.6775C86.1395 23.3313 86.3272 23.0732 86.1556 22.5989C86.8712 22.5341 87.5948 22.8378 88.4 22.9857C89.0062 23.1064 90.4842 23.1135 91.0155 23.1772C91.388 23.2322 91.7821 23.5753 92.1963 23.6227C92.2024 24.6571 91.6588 24.9782 90.7834 25.3844C90.0988 26.6725 89.0578 27.8256 87.8595 28.6482C87.6263 28.5355 87.3988 28.4159 87.1771 28.29C87.1769 28.2896 87.1766 28.2892 87.1764 28.2887C86.6067 28.3329 86.6968 28.9267 86.4902 29.1751C84.3844 31.7478 79.0135 31.05 76.6244 30.6295C76.0697 30.5683 74.2687 30.6675 73.9411 30.2477C73.8557 30.1405 73.8804 29.796 73.7825 29.767C72.8569 29.8425 71.9159 29.8915 70.9916 29.9249C69.7723 29.3109 68.4557 29.131 67.1337 28.9403L67.6568 29.0023C67.0643 29.0558 66.5194 29.1032 65.9272 29.1058C63.3231 29.1021 60.6153 28.9626 57.7987 27.9159C55.0089 27.02 51.9573 24.002 51.5679 20.676C51.3457 19.4428 51.0994 17.9362 51.3833 16.8615C51.5002 16.4183 52.07 16.3112 51.7528 15.6861C51.9009 15.7044 52.0489 15.7229 52.197 15.7415C52.1011 15.2297 51.8302 14.8477 51.9158 14.3077C51.9316 14.2108 51.9559 14.0804 51.9871 13.9311C52.1004 13.3704 52.336 12.5586 52.4819 12.2635C52.5756 12.0683 52.815 12.2317 52.8767 12.0439C52.9781 11.7235 52.8696 10.9057 53.0559 10.4641C53.2199 10.0618 53.813 9.53978 53.9181 9.22793C54.2884 8.10232 54.5656 6.69844 55.4778 5.69987C55.7298 5.42254 56.3078 5.28723 56.3739 5.19431C56.5015 5.01039 56.2809 4.73012 56.3492 4.58414C56.6973 3.83215 57.9007 3.25609 58.5357 2.79501C60.5479 1.2262 63.484 -0.0581926 66.2819 0.198127C68.0483 0.257099 70.7165 1.13748 71.8052 2.0901C71.9846 2.23562 71.8928 2.43391 71.9179 2.57839C71.9224 2.62898 71.9415 2.67179 71.9922 2.70067C72.2016 2.81975 72.4426 2.65801 72.5501 2.69498C73.2867 2.94488 74.9174 3.56579 75.4187 4.15525C75.5165 4.26931 75.4566 4.58166 75.5304 4.62223C75.5674 4.64323 75.7525 4.51195 75.8786 4.55941C76.9913 4.97784 77.6842 5.51116 78.6523 6.15514C80.504 7.38784 82.9534 8.40578 84.8409 9.99611C85.2554 10.3451 85.1903 11.0409 85.2557 11.0819C85.3948 11.171 85.7212 10.9139 86.0472 11.0402C87.1481 11.4722 88.0574 12.8258 88.9834 13.5417C89.4423 13.885 90.3653 14.1968 90.8286 14.6625C91.2076 15.0112 91.6597 16.1965 91.9512 16.3218C92.137 16.3954 92.5606 16.2768 92.6882 16.4284ZM78.0099 11.9008C78.4273 11.343 77.5178 11.4683 77.5565 11.9254C77.5655 12.0283 77.9022 12.0458 78.0099 11.9008ZM55.8936 16.2404C56.0897 16.2681 56.2857 16.296 56.4817 16.3241C56.4154 16.2249 56.3491 16.1295 56.2841 16.0295C56.1583 16.0547 56.0325 16.0806 55.9068 16.1072C55.9024 16.1506 55.8979 16.1958 55.8936 16.2404Z" fill="var(--stroke-0, #8A9E7E)"/>
<path id="Ellipse_9" d="M125.206 4.46815C125.322 4.57846 125.192 4.88642 125.256 5.04008C125.522 5.69683 125.455 5.99015 125.597 6.55843C125.821 7.42828 126.966 9.37038 125.305 10.0541C125.305 10.0541 125.305 10.0541 125.305 10.0541C125.288 10.0609 125.272 10.0676 125.255 10.0741C124.935 10.1988 124.515 10.1646 124.145 10.2862C123.775 10.4082 121.465 11.3846 121.229 11.1805C120.901 10.8699 121.142 9.75795 121.034 9.57581C120.962 9.45238 120.686 9.38372 120.578 9.23553C120.238 8.77269 120.265 8.42557 119.506 8.28378C119.717 7.97286 119.926 7.66657 120.122 7.34342C119.876 7.20592 120.062 6.68208 119.961 6.57376C119.88 6.48544 119.629 6.57613 119.555 6.49243C119.471 6.3999 119.576 6.07402 119.393 5.92821C119.094 5.69575 118.583 6.15185 118.409 6.11002C118.234 6.07323 118.226 5.61776 117.913 5.72064C117.854 5.77318 117.798 5.82751 117.743 5.88273C117.684 6.04031 117.621 6.19644 117.556 6.35134C117.453 6.38553 117.568 6.06047 117.487 6.01876C117.393 5.97143 117.232 6.25987 117.171 6.23768C117.12 6.2193 117.121 5.94673 117.033 5.94072C116.905 5.93195 116.848 6.30649 116.775 6.36233C116.751 6.37842 116.246 6.51387 116.206 6.51962C115.987 6.51696 115.984 6.0014 115.77 5.95089C115.163 5.81659 114.507 6.29393 113.911 6.54191C113.637 6.65345 113.342 6.67401 113.034 6.64968C113.269 5.25951 111.981 4.46628 112.799 6.40919C112.41 6.18855 112.301 6.78383 111.956 6.76851C111.742 6.75647 111.537 6.5116 111.238 6.59638C110.702 6.75042 110.373 7.69387 109.792 6.33185C109.448 6.60647 109.026 6.57052 108.806 6.85703L109.552 6.48125C109.479 6.67619 109.501 6.94363 109.698 7.37625C109.594 7.54844 108.766 7.18929 108.542 7.2193C108.325 7.25318 106.928 7.80924 106.712 7.93449C106.501 8.05741 106.145 8.27885 106.046 8.48586C105.92 8.74416 106.53 9.96036 105.266 8.91797C104.91 9.31701 104.724 9.38929 104.218 9.51302C104.127 9.53534 103.987 9.3477 103.944 9.3764C103.857 9.4363 103.809 9.678 103.663 9.80275C103.42 10.0091 102.998 9.70127 103.448 10.3036C103.349 10.5234 103.251 10.7421 103.154 10.9597C103.015 10.8786 102.872 10.8008 102.73 10.7213C102.727 10.9144 102.724 11.1072 102.722 11.2996C102.218 10.328 101.943 11.2889 102.499 11.6661C102.053 11.6962 101.585 11.7418 101.138 11.7732C100.494 10.717 100.337 12.1455 100.783 12.6551C100.746 12.6796 100.708 12.704 100.671 12.7283C100.169 12.6732 100.009 13.1085 99.4994 13.1929C98.9826 13.2828 98.948 13.161 98.5039 12.7776C98.4301 12.8689 98.3572 12.9597 98.2852 13.05C98.7072 14.66 97.2238 12.3998 97.1073 13.9606C96.2728 13.3559 95.936 14.247 95.7158 14.7977C95.6896 14.862 95.8058 15.0124 95.7799 15.1073C95.7164 15.3352 95.183 15.4531 95.5849 15.9174C95.3431 15.8862 95.1045 15.8543 94.8639 15.8261C94.8298 16.0015 94.8001 16.1748 94.7748 16.3457C94.902 16.4888 95.0291 16.6319 95.1562 16.775C94.5327 16.4536 94.3857 16.9319 94.1445 16.9511C94.0948 16.9555 93.9024 16.7737 93.7613 16.8125C93.5924 16.8595 93.4696 17.099 93.2892 17.175C93.4597 17.422 93.6348 17.6648 93.8148 17.903C93.7615 18.2048 93.1028 17.7941 92.9516 17.8898C92.9209 17.9043 92.6566 18.3719 92.6658 18.3983C92.663 18.6571 93.2289 18.9501 92.9024 19.3177C92.8468 19.3825 92.6099 19.3649 92.5759 19.4355C92.502 19.5793 92.9434 20.0321 93.4252 20.0737C92.8139 20.0975 93.0641 20.4562 92.9188 20.5831C92.8723 20.6253 92.4958 20.692 92.4437 20.8401C92.3992 20.9602 92.771 21.1581 92.7722 21.3038C92.7722 21.4419 92.5811 21.5916 92.527 21.6865C92.5164 21.7029 92.5106 21.7173 92.5118 21.7292C92.5199 21.8016 92.7801 21.7521 92.8167 21.831C92.9249 22.0753 92.7138 22.5223 92.8566 22.7345C93.0674 23.0468 93.8596 22.7818 94.2751 22.7132C94.287 22.7939 94.2238 22.9596 94.2778 23.0107C94.9172 23.6345 95.8633 24.3487 96.8482 24.9112C97.269 25.1807 98.3059 26.5641 98.432 24.7975C98.6688 24.5644 99.8028 25.5478 100.08 25.5971C100.335 25.6548 100.594 25.3831 100.797 25.4096C101.404 25.4865 101.826 25.7633 102.615 25.5555C102.817 25.5004 103.051 25.1471 103.166 25.1579C103.307 25.1719 103.438 25.5343 103.621 25.5642C104.059 25.6355 104.88 25.5272 105.306 25.5794C105.383 25.5901 105.416 25.9015 105.53 25.9965C105.979 26.3683 106.48 26.3098 106.343 25.3195C106.927 25.8573 107.413 25.3047 107.922 25.2252C108.994 25.0734 111.02 24.9961 111.87 24.3849C112.406 24.0038 112.288 23.5767 113.229 23.7509C113.438 23.7885 113.655 23.8537 113.912 23.893C114.508 23.988 115.246 24.6376 115.377 23.5619C115.722 23.5986 116.003 23.5282 116.29 23.5426C116.563 23.5549 116.833 23.6438 117.176 23.9615C117.16 23.7512 117.144 23.5411 117.126 23.3314C117.194 23.3024 117.257 23.2745 117.327 23.2443C117.415 23.4194 117.503 23.5944 117.592 23.7691C118.138 23.6296 118.46 22.6385 118.837 22.4764C119.524 22.2116 121.164 21.6422 121.743 21.466C122.07 21.3789 121.791 21.0655 122.502 21.576C122.513 21.4843 122.521 21.3941 122.525 21.3059C122.421 21.1446 122.316 20.9846 122.207 20.8275C122.432 20.5858 122.885 20.4652 123.021 20.21C123.292 19.7114 122.917 19.0182 123.219 18.4237C123.299 18.2748 123.666 18.0309 123.637 17.8539C123.595 17.5988 122.953 17.6481 122.877 17.3452C122.763 16.8389 123.096 15.4613 122.795 14.858C122.71 14.6836 122.454 14.6856 122.381 14.5697C122.072 14.0874 121.904 13.6379 121.343 13.258C121.67 12.4521 122.42 12.1884 123.083 11.7001C123.582 11.3295 124.702 10.3779 125.168 10.119C125.495 9.93622 125.999 9.90157 126.354 9.68807C126.932 10.2254 126.725 10.6538 126.432 11.4404C126.89 12.4738 127.36 13.5511 127.759 14.7445C127.58 14.9206 127.399 15.0936 127.215 15.263C127.215 15.2631 127.215 15.2633 127.214 15.2634C127.097 15.7862 127.699 15.8311 127.889 16.071C128.778 17.1222 129.247 19.5786 128.159 21.9191C127.075 24.2673 125.073 25.4305 123.867 26.1468C123.356 26.4834 121.773 27.6451 121.245 27.4618C121.11 27.419 120.949 27.1132 120.848 27.1418C120.062 27.7111 119.231 28.2391 118.417 28.7248C118.262 28.733 118.108 28.7462 117.953 28.7639C116.164 28.9524 114.519 29.7731 112.777 30.1928C107.711 31.3861 102.347 31.9475 96.9882 30.4302C95.9632 30.1341 94.546 29.8921 93.6105 29.2339C93.2187 28.9581 93.3259 28.3932 92.5883 28.4329C92.6601 28.3021 92.732 28.1714 92.8042 28.0407C92.2661 27.9202 91.776 28.0024 91.2557 27.6445C90.8029 27.3587 89.7302 26.3498 89.4724 25.8998C89.3324 25.6795 89.6104 25.5825 89.4657 25.3944C89.2187 25.0868 88.4065 24.5284 88.1527 23.9662C88.0993 23.8528 88.0552 23.713 88.0197 23.5609C87.9036 23.0673 87.9011 22.4523 87.7914 22.1508C87.231 20.8152 86.8389 18.6397 87.6984 17.073C87.9187 16.6435 88.517 16.3202 88.5741 16.2083C88.689 15.975 88.4389 15.7175 88.4964 15.5475C88.8101 14.6398 89.9865 13.9442 90.5162 13.4557C92.2867 11.7989 94.0497 10.3678 95.8153 9.19878C96.93 8.46508 98.7019 7.19308 99.8391 6.74164C100.086 6.6429 100.248 6.99767 100.426 6.87745C100.622 6.74425 100.584 6.45632 100.665 6.376C101.236 5.81207 102.483 4.64237 103.24 4.43962C103.382 4.40361 103.636 4.59421 103.703 4.54614C103.737 4.52225 103.698 4.29946 103.795 4.20679C104.65 3.38479 105.404 3.00002 106.374 2.38994C106.427 2.35681 106.479 2.32308 106.532 2.2888L107.237 1.93383C109.44 1.34836 111.874 0.291369 114.565 0.294847C115.163 0.29919 115.593 0.898689 115.669 0.892547C115.847 0.882282 115.971 0.479616 116.374 0.401694C117.698 0.116383 119.627 1.02637 120.92 1.72171C121.577 2.02545 122.687 2.36241 123.232 2.85309C123.698 3.24098 124.198 4.38649 124.487 4.46205C124.67 4.50952 125.078 4.35015 125.206 4.46815ZM110.83 6.35836C110.713 5.6711 110.212 6.40694 110.558 6.69719C110.636 6.76216 110.861 6.53595 110.83 6.35836ZM94.6517 24.8002C94.7516 24.6293 94.8519 24.4585 94.9524 24.288C94.8432 24.3167 94.7334 24.3439 94.623 24.3696C94.5937 24.4929 94.5662 24.617 94.5405 24.742C94.5773 24.7615 94.6144 24.7809 94.6517 24.8002Z" fill="var(--stroke-0, #8A9E7E)"/>
<path id="Line" d="M65.6132 73.0244C65.6228 73.1078 65.3482 73.0705 65.2976 73.1357C65.0833 73.4072 64.8651 73.4331 64.6292 73.6562C64.2791 73.9869 63.9361 75.343 62.3493 74.4886C62.3492 74.4886 62.3492 74.4886 62.3492 74.4885C62.3336 74.4802 62.3179 74.4716 62.3021 74.4628C62.0021 74.2958 61.7268 74.0165 61.393 73.8173C61.0591 73.6181 58.8451 72.4405 58.7986 72.2294C58.7477 71.9321 59.5841 71.735 59.6191 71.6099C59.6429 71.5243 59.4927 71.3223 59.5096 71.2056C59.5641 70.8292 59.7995 70.7437 59.4069 70.1667C59.7552 70.2081 60.1036 70.2495 60.4519 70.2908C60.3983 70.0712 60.898 70.0511 60.9255 69.95C60.948 69.8671 60.7441 69.7015 60.7749 69.619C60.8081 69.5258 61.1246 69.5255 61.1721 69.3489C61.251 69.06 60.6829 68.6951 60.6906 68.5004C60.6988 68.2986 61.1548 68.2235 61.0561 67.9072C61.0047 67.8465 60.9532 67.7858 60.9018 67.7251C60.7445 67.664 60.5872 67.6029 60.4298 67.5419C60.4165 67.4022 60.7425 67.5207 60.7988 67.4292C60.8652 67.3217 60.6092 67.1108 60.6508 67.0367C60.6851 66.9762 60.9595 67.0169 60.9879 66.9298C61.0304 66.8033 60.6851 66.65 60.6565 66.5543C60.6458 66.5165 60.7102 65.9585 60.7215 65.9311C60.8146 65.7269 61.2778 65.9542 61.4022 65.8184C61.7453 65.4407 61.6194 64.7956 61.6979 64.3176C61.7328 64.1041 61.8604 63.9304 62.0297 63.79C63.0394 64.6985 64.2808 64.5595 62.3365 63.8145C62.7027 63.754 62.2882 63.3481 62.4731 63.2033C62.5678 63.1298 62.7728 63.1459 62.8983 63.0686L63.1823 62.6328C63.219 62.6179 63.2512 62.5954 63.2757 62.5612C63.4802 62.2737 63.0745 61.4696 64.298 62.2928C64.3473 61.8069 64.9886 61.8516 64.055 60.9366C64.0579 60.8036 64.8364 61.0627 64.9928 61.0328C65.1405 61.0042 65.9494 60.5331 66.052 60.4329C66.1546 60.3327 66.324 60.1494 66.3076 59.985C66.2886 59.7798 65.2899 58.87 66.6973 59.6255C66.7877 59.3017 66.8914 59.2418 67.2135 59.1257C67.2718 59.1046 67.46 59.2435 67.4789 59.2195C67.5176 59.1697 67.4471 58.9789 67.4996 58.8771C67.586 58.7098 68.0392 58.9285 67.4334 58.4834C67.4089 58.3098 67.3844 58.1361 67.3599 57.9624C67.5006 58.0176 67.6414 58.0729 67.7821 58.1281C67.6974 57.9796 67.6128 57.8311 67.5281 57.6825C68.3393 58.4106 68.1147 57.6541 67.5307 57.3888C67.8535 57.3402 68.1763 57.2915 68.4991 57.2429C69.283 57.8868 69.0709 57.2568 68.6607 56.8023L68.7699 56.6718C68.6876 56.5663 68.5953 56.4685 68.5001 56.3941C68.519 56.3746 68.5378 56.3551 68.5566 56.3356C68.9593 56.3792 68.9052 56.0377 69.2623 55.9705C69.6194 55.9033 69.6907 56.0039 70.172 56.3189C70.1932 56.2466 70.2145 56.1743 70.2358 56.102C69.3161 54.7945 71.2793 56.6461 70.7994 55.3925C71.6579 55.9026 71.5973 55.201 71.5899 54.7653C71.5891 54.7146 71.4482 54.587 71.4377 54.511C71.4138 54.3269 71.8017 54.2612 71.3389 53.8588C71.5421 53.8982 71.7454 53.9375 71.9487 53.9769C71.9242 53.8374 71.8997 53.698 71.8752 53.5586C71.7326 53.4308 71.59 53.3031 71.4475 53.1754C72.0499 53.4812 72.0482 53.1083 72.2552 53.1114C72.2969 53.1125 72.497 53.2847 72.6069 53.2703C72.7363 53.2543 72.801 53.0657 72.9408 53.0337C72.7539 52.8041 72.567 52.5745 72.3801 52.345C72.4025 52.0829 73.0257 52.5446 73.1527 52.4931C73.1753 52.4836 73.4047 52.1457 73.4071 52.1185C73.4294 51.8984 72.9067 51.496 73.3568 51.2065C73.4372 51.1552 73.6561 51.2522 73.7185 51.1966C73.8289 51.0985 73.7412 50.4245 73.41 50.0796C73.9727 50.3465 74.11 49.8293 74.3321 49.8403C74.3998 49.8443 74.6888 50.0916 74.8361 50.049C74.9557 50.0147 74.9112 49.609 75.0386 49.5436C75.1749 49.4752 75.4462 49.6511 75.5056 49.6189C75.5614 49.5883 75.4069 49.3746 75.4628 49.3147C75.6406 49.1305 76.104 49.236 76.245 49.0908C76.4495 48.8815 76.0549 48.1788 75.9666 47.7702C76.044 47.7582 76.2057 47.8235 76.2494 47.7771C76.7941 47.2078 77.493 46.6415 78.1429 46.1637C78.4441 45.9414 79.8243 45.9567 78.3764 44.981C78.2366 44.6837 79.3746 44.4613 79.5003 44.3373C79.6259 44.2133 79.4889 43.9021 79.5781 43.7961C79.8477 43.4764 80.2107 43.407 80.3503 42.8483C80.3858 42.7034 80.207 42.3531 80.2622 42.2981C80.3294 42.2324 80.6609 42.3951 80.7589 42.3199C80.7859 42.2988 80.8135 42.2736 80.8415 42.2454L80.2363 43.2597C80.3513 42.9812 80.4226 42.5293 80.5563 42.3165C80.5846 42.2728 80.8843 42.361 81.0005 42.3255C81.4542 42.1876 81.5296 41.8785 80.5729 41.5963C81.2271 41.4456 80.854 40.9568 80.9371 40.6303C81.1149 39.9407 81.7683 38.8023 81.582 38.0798C81.4645 37.6241 81.0405 37.4833 81.5964 37.0728C81.7197 36.9816 81.8709 36.901 82.0189 36.7899C82.3666 36.5297 83.2553 36.4945 82.4118 35.9003C82.7898 35.6085 82.7253 35.2454 83.6264 35.2505C83.4461 35.1488 83.2659 35.0471 83.0857 34.9454C83.0975 34.8973 83.1093 34.8492 83.1212 34.8011C83.3095 34.852 83.4978 34.9029 83.6862 34.9539C83.8542 34.639 83.2521 33.9483 83.3581 33.6688C83.5351 33.1999 84.2617 32.0889 84.6687 31.7297C84.8848 31.539 84.497 31.3861 85.352 31.5381C85.3149 31.465 85.2778 31.3918 85.2406 31.3186C85.0759 31.2223 84.9112 31.126 84.7465 31.0297C84.8483 30.7224 85.2517 30.4588 85.3526 30.1675C85.5359 29.6364 85.3337 28.6683 85.8426 28.251C85.9707 28.1465 86.3943 28.11 86.4368 27.9781C86.499 27.7862 85.9112 27.5243 85.9859 27.2793C86.1159 26.8574 87.0941 26.3348 87.1806 25.9231C87.2067 25.801 87.0013 25.6663 87.006 25.5772C87.0235 25.2028 87.1408 24.9322 86.9089 24.4845C87.6121 24.3438 88.3488 24.6407 89.1415 24.8024C89.7399 24.9241 91.1485 25.1449 91.6598 25.2875C92.0189 25.3876 92.4362 25.6417 92.8343 25.7444C92.9934 26.2708 92.592 26.3247 91.9289 26.4691C91.7275 27.1012 91.5261 27.7333 91.3247 28.3654C91.094 28.347 90.8633 28.3287 90.6325 28.3103C90.6321 28.3101 90.6316 28.31 90.6311 28.3098C90.3026 28.4629 90.8083 28.7581 90.8851 28.9313C91.6209 30.5901 89.8287 32.6976 89.2091 34.0131C89.076 34.2967 89.0184 35.3534 88.6046 35.4329C88.4969 35.4533 88.1672 35.3519 88.1333 35.4023C88.1491 35.9672 88.165 36.5321 88.1808 37.097C87.3124 37.9367 87.3522 39.1398 87.0629 40.1952C86.6025 41.8751 86.1613 43.5509 85.6613 45.1973L85.1233 46.099C84.3619 47.0318 83.5793 47.9403 82.7543 48.8062C82.3666 49.2124 82.082 49.9144 81.5907 50.2115C81.386 50.3357 80.9108 50.0366 81.0158 50.5364C80.9029 50.439 80.79 50.3416 80.677 50.2442C80.635 50.56 80.7747 50.9118 80.6032 51.154C80.4583 51.3575 80.0355 51.8604 79.8464 51.9853C79.7492 52.0508 79.5704 51.833 79.5005 51.9127C79.3824 52.0507 79.4092 52.5967 79.2416 52.783C79.0897 52.9517 78.5952 53.0214 78.5131 53.1822C78.2153 53.7597 78.111 54.5867 77.5682 54.9992C77.4176 55.1126 76.99 55.0478 76.9587 55.0976C76.8986 55.1958 77.1369 55.4555 77.1195 55.5422C77.0307 55.9817 76.3181 56.1502 76.0526 56.4204C75.1874 57.301 74.4273 58.3746 73.5579 59.2442C73.3053 59.497 72.9961 59.8451 72.67 60.1819L72.8025 60.0237C72.4491 60.4454 72.0716 60.8534 71.7217 61.0711C71.5818 61.1581 71.3037 60.8896 71.2241 60.9919C71.1358 61.1055 71.293 61.3264 71.2683 61.3923C71.0988 61.8498 70.6755 62.8215 70.1964 63.0052C70.1048 63.0399 69.8298 62.9029 69.7999 62.9431C69.7843 62.9631 69.9114 63.1345 69.8791 63.2103C69.5945 63.8791 69.1853 64.21 68.7069 64.7102C68.3214 65.1143 67.9854 65.6039 67.6498 66.1075L67.8815 65.7518C67.542 66.5106 67.2076 67.2953 66.7221 67.9443C66.5394 68.1887 65.9167 68.0885 65.9018 68.1288C65.8683 68.2165 66.1928 68.4589 66.1905 68.672C66.1796 69.3785 65.4027 69.9195 65.2967 70.54C65.2441 70.8464 65.5 71.4442 65.4616 71.7529C65.431 71.9995 64.9959 72.3866 65.1439 72.5829C65.2331 72.7019 65.6009 72.9328 65.6132 73.0244ZM63.6697 62.5995C64.1913 63.0575 64.003 62.3616 63.6095 62.2617C63.5209 62.2392 63.5343 62.4807 63.6697 62.5995ZM77.8564 47.8054C77.7066 47.676 77.5569 47.5465 77.4071 47.4171C77.4302 47.5145 77.4533 47.6119 77.4765 47.7093C77.5863 47.7651 77.6962 47.8209 77.806 47.8767C77.8228 47.853 77.8396 47.8292 77.8564 47.8054Z" fill="var(--stroke-0, #8A9E7E)"/>
<path id="Line_2" d="M123.18 65.9586C123.263 65.9516 123.217 66.2248 123.281 66.2773C123.545 66.4996 123.564 66.7184 123.779 66.9609C124.098 67.3206 125.441 67.7041 124.538 69.2638C124.538 69.2638 124.538 69.2639 124.538 69.2639C124.53 69.2792 124.52 69.2946 124.511 69.3101C124.335 69.6049 124.048 69.8716 123.838 70.199C123.629 70.5267 122.383 72.7033 122.171 72.7433C121.873 72.7853 121.703 71.9437 121.579 71.9049C121.494 71.8786 121.288 72.0225 121.172 72.0021C120.798 71.9364 120.72 71.6986 120.131 72.0736C120.184 71.7267 120.236 71.3799 120.288 71.0331C120.067 71.08 120.063 70.5803 119.963 70.5497C119.881 70.5247 119.709 70.7235 119.628 70.6903C119.536 70.6542 119.546 70.338 119.371 70.2853C119.085 70.1977 118.703 70.7543 118.509 70.7407C118.307 70.7265 118.247 70.2686 117.928 70.3577C117.866 70.4073 117.803 70.4568 117.741 70.5064C117.675 70.6618 117.609 70.8171 117.543 70.9725C117.404 70.9816 117.532 70.6594 117.443 70.6004C117.337 70.5308 117.119 70.7802 117.046 70.7365C116.987 70.7004 117.036 70.4274 116.95 70.3964C116.825 70.3502 116.661 70.6906 116.565 70.7162C116.527 70.7258 115.972 70.6447 115.945 70.6325C115.744 70.5334 115.985 70.0774 115.854 69.9491C115.487 69.5949 114.839 69.7013 114.365 69.6084C114.153 69.5671 113.983 69.4344 113.849 69.261C114.787 68.2796 114.688 67.0351 113.883 68.9553C113.834 68.5875 113.416 68.9895 113.277 68.8003C113.188 68.6775 113.248 68.3816 113.072 68.2887C112.76 68.1254 112.019 68.637 112.669 67.3131C112.181 67.3305 112.139 66.6894 111.36 67.7388C111.228 67.7541 111.379 66.9478 111.328 66.797C111.28 66.6547 110.705 65.918 110.592 65.8301C110.479 65.7422 110.274 65.5994 110.114 65.6382C109.913 65.685 109.148 66.7981 109.706 65.3013C109.459 65.2676 109.355 65.2069 109.253 65.0536L108.546 64.4017C108.536 64.3387 108.532 64.2657 108.528 64.1777C108.526 64.1159 108.715 63.978 108.697 63.9527C108.662 63.901 108.459 63.9112 108.377 63.8308C108.244 63.6985 108.588 63.3318 107.982 63.7764C107.809 63.748 107.636 63.7195 107.463 63.691C107.558 63.5734 107.653 63.4557 107.748 63.338C107.581 63.3744 107.414 63.4108 107.247 63.4472C108.185 62.8912 107.396 62.8795 106.968 63.357C107.018 63.0348 107.069 62.7125 107.119 62.3903C108.154 61.714 106.941 61.8828 106.415 62.3034C106.401 62.2806 106.386 62.2579 106.372 62.2351C106.507 61.8536 106.162 61.8279 106.18 61.4653C106.197 61.1027 106.311 61.0565 106.728 60.6608C106.663 60.6236 106.598 60.5863 106.532 60.5491C105.048 61.1433 107.302 59.6593 105.973 59.8384C106.667 59.1208 105.971 59.0188 105.545 58.926C105.496 58.9152 105.339 59.0229 105.263 59.0157C105.078 58.9967 105.104 58.6046 104.606 58.9622C104.691 58.7736 104.776 58.585 104.862 58.3965C104.72 58.3883 104.579 58.3802 104.438 58.372C104.281 58.4813 104.124 58.5906 103.966 58.6999C104.403 58.1844 104.04 58.1005 104.091 57.9C104.101 57.8597 104.315 57.7046 104.327 57.5945C104.341 57.465 104.172 57.3589 104.174 57.2157C103.907 57.3447 103.641 57.4738 103.374 57.6028C103.125 57.5209 103.718 57.021 103.697 56.8857C103.693 56.8616 103.417 56.561 103.391 56.5525C103.182 56.4803 102.67 56.8962 102.493 56.3923C102.462 56.3023 102.606 56.1117 102.567 56.0383C102.497 55.9084 101.821 55.8392 101.409 56.0821C101.49 55.9809 101.534 55.8899 101.553 55.8073L101.082 54.73C101.268 54.4663 101.077 54.1797 101.186 54.0418C101.229 53.989 101.598 53.8972 101.649 53.7528C101.69 53.6357 101.334 53.4369 101.355 53.2954C101.378 53.1449 101.679 53.0262 101.687 52.9593C101.695 52.8961 101.431 52.898 101.415 52.8179C101.368 52.5666 101.723 52.2508 101.687 52.0521C101.635 51.7646 100.834 51.6784 100.45 51.5135C100.485 51.4436 100.632 51.3499 100.62 51.2876C100.473 50.5148 100.418 49.6185 100.406 48.8132C100.4 48.4395 101.214 47.326 99.5793 47.9383C99.2561 47.8798 99.7359 46.8255 99.708 46.6515C99.68 46.4775 99.3471 46.4086 99.3127 46.2746C99.209 45.8702 99.3633 45.5349 98.9896 45.0977C98.8923 44.9849 98.5032 44.9274 98.4905 44.8506C98.4761 44.758 98.801 44.5826 98.7968 44.4594C98.7839 44.1663 98.553 43.666 98.5529 43.382C98.5536 43.33 98.8542 43.245 98.9337 43.1532C99.2444 42.7954 99.1436 42.4941 98.1836 42.7647C98.4426 42.5047 98.3876 42.3227 98.2678 42.1589L98.7135 43.2018C98.5718 43.1112 98.393 43.0484 98.2968 42.9302C97.8498 42.3774 97.3264 41.176 96.6358 40.8957C96.2002 40.7191 95.8344 40.9755 95.8366 40.2853C95.8371 40.1321 95.8626 39.9629 95.8617 39.778C95.8604 39.3443 96.3622 38.6102 95.3825 38.9337C95.3739 38.4567 95.0443 38.2926 95.5857 37.5725C95.3967 37.6567 95.2076 37.7408 95.0185 37.8249C94.987 37.7868 94.9555 37.7487 94.9239 37.7106C95.0771 37.5898 95.2303 37.4689 95.3835 37.3481C95.2311 37.0259 94.318 37.0984 94.1571 36.8471C93.8866 36.4262 93.4288 35.1824 93.3834 34.6421C93.3593 34.3553 93.0055 34.5755 93.6373 33.9798C93.5565 33.9661 93.4756 33.9524 93.3948 33.9386C93.2193 34.0135 93.0439 34.0884 92.8684 34.1633C92.6826 33.8988 92.7118 33.4184 92.5383 33.1641C92.2216 32.7012 91.3246 32.2877 91.2934 31.6311C91.286 31.4662 91.5094 31.1046 91.4289 30.992C91.3121 30.828 90.7514 31.1439 90.5995 30.9382C90.3386 30.583 90.5028 29.4872 90.2242 29.1729C90.1418 29.0794 89.9113 29.1641 89.8427 29.1073C89.5528 28.8707 89.4057 28.6156 88.9083 28.5354C89.2148 27.8874 89.8924 27.4728 90.4948 26.9328C90.9493 26.525 91.9665 25.526 92.3857 25.2005C92.6802 24.9718 93.1329 24.7881 93.4526 24.5298C93.9697 24.7151 93.7735 25.0693 93.4939 25.6873C93.8808 26.2248 94.2677 26.7624 94.6545 27.2999C94.5022 27.4742 94.3499 27.6484 94.1975 27.8227C94.1971 27.8229 94.1967 27.8232 94.1963 27.8235C94.1232 28.1781 94.6615 27.9479 94.8463 27.9893C96.6155 28.3854 97.237 31.077 97.9227 32.3566C98.0707 32.6321 98.8839 33.3068 98.7009 33.6861C98.653 33.7846 98.3751 33.9889 98.3953 34.0461C98.8578 34.3694 99.3203 34.6926 99.7828 35.0158C99.9385 36.2122 100.927 36.8957 101.601 37.7556C102.206 38.5272 102.813 39.2931 103.411 40.0618L103.784 40.9332C104.346 42.8135 104.869 44.6907 105.235 46.5941C105.341 47.1446 105.747 47.7827 105.704 48.3543C105.686 48.5927 105.166 48.8059 105.634 49.01C105.489 49.0454 105.344 49.0808 105.2 49.1162C105.432 49.3334 105.8 49.4235 105.897 49.7033C105.979 49.939 106.143 50.5741 106.135 50.8002C106.131 50.9173 105.85 50.9364 105.875 51.0394C105.918 51.2154 106.378 51.5099 106.433 51.7541C106.482 51.9753 106.251 52.4178 106.334 52.5778C106.481 52.8625 106.705 53.1441 106.896 53.4382L106.45 52.4173C106.745 52.6226 107.014 52.8527 107.154 53.1677C107.229 53.3401 107.067 53.741 107.109 53.7828C107.19 53.8638 107.498 53.6917 107.578 53.7284C107.985 53.9156 107.984 54.647 108.186 54.9671C108.842 56.0101 109.71 56.9953 110.355 58.0399C110.763 58.6998 111.546 59.7229 111.736 60.461C111.777 60.6202 111.438 60.8052 111.511 60.9117C111.593 61.0297 111.851 60.9458 111.906 60.989C112.085 61.1272 112.352 61.3504 112.591 61.601L111.718 60.7954C112.091 60.9399 112.446 61.1341 112.578 61.3752C112.625 61.4611 112.526 61.7521 112.57 61.7763C112.592 61.7889 112.744 61.6397 112.824 61.6613C113.524 61.8519 113.907 62.2119 114.466 62.6173C115.539 63.3924 117.05 63.8258 118.144 64.6978C118.382 64.8877 118.262 65.5069 118.302 65.5229C118.388 65.5591 118.641 65.2421 118.853 65.2508C119.558 65.283 120.074 66.0755 120.69 66.2001C120.994 66.2619 121.599 66.0242 121.906 66.0719C122.151 66.1099 122.524 66.5562 122.724 66.4143C122.846 66.3288 123.088 65.9682 123.18 65.9586ZM113.057 67.8934C113.44 67.3143 112.777 67.5957 112.731 67.999C112.721 68.0898 112.958 68.0437 113.057 67.8934ZM101.576 49.9972C101.384 50.044 101.192 50.0908 100.999 50.1376C101.092 50.1752 101.185 50.2128 101.278 50.2505C101.387 50.1935 101.496 50.1365 101.605 50.0795C101.596 50.0521 101.586 50.0246 101.576 49.9972Z" fill="var(--stroke-0, #8A9E7E)"/>
</g>
<path id="Rectangle 1" d="M128.399 14.9491C129.16 14.9011 130.234 15.1605 131.132 15.1742C134.893 15.2342 136.287 15.414 139.69 15.516C144.736 15.6675 159.713 15.3265 159.713 17.1287C159.713 17.1288 159.713 17.1288 159.713 17.1289C159.713 17.1465 159.711 17.1644 159.709 17.1825C159.656 17.5258 158.382 17.9006 158.193 18.2889C158.005 18.6774 158.146 21.1851 156.337 21.3261C153.714 21.5118 147.421 20.8689 146.022 20.8974C145.066 20.917 143.888 21.145 142.665 21.1854C138.722 21.3159 136.658 21.1492 133.105 21.7684C131.684 21.4421 130.263 21.1158 128.842 20.7894C128.62 20.8075 128.385 20.8173 128.141 20.8205L128.056 20.8186C126.256 20.7606 123.976 20.3255 122.984 20.3013C122.06 20.2788 121.507 20.512 120.545 20.4803C119.465 20.4461 117.82 20.0925 115.855 20.0452C112.634 19.9664 112.031 20.6128 110.096 20.6105C108.09 20.6078 104.993 20.1008 102.427 20.2213C102.103 20.2807 101.78 20.3401 101.456 20.3995C101.678 20.5773 101.9 20.755 102.122 20.9328C100.831 20.9522 100.294 20.5841 99.1114 20.5242C97.7204 20.4535 96.9959 20.7463 96.0598 20.7022C95.2929 20.6658 94.265 20.3579 93.2698 20.329C91.819 20.2856 92.1189 20.6764 91.3356 20.7113C91.1128 20.7207 88.1189 20.6961 86.3007 20.6768L86.8458 20.6606C86.1208 20.7626 85.5844 20.8369 85.4917 20.8475C83.0351 21.1211 82.7671 20.6308 80.8022 20.7923C75.3527 21.2422 69.8155 22.2441 64.8032 22.93C62.5651 23.2365 60.219 23.4533 57.9713 23.6069C61.3598 21.9232 53.4477 21.7233 56.5827 23.4698C54.3725 23.4436 52.7874 24.009 50.833 24.2534L50.2804 24.2668C50.0028 24.2566 49.719 24.239 49.4266 24.2108C47.8966 24.0631 46.8514 23.7175 44.6613 23.6017C40.7752 23.398 36.4796 23.9714 35.4448 22.4397C30.8693 22.4418 26.949 21.6866 25.2322 22.8907C24.0516 22.9037 21.0811 21.9617 19.7679 21.7825C19.3814 21.7299 18.1899 21.6077 16.6849 21.461L19.3485 18.9432C19.2117 22.2872 19.0418 27.1718 19.0283 28.252C19.0088 29.8205 18.9876 32.566 19.1016 33.887C19.2426 35.5465 20.5894 36.7062 19.0147 39.6607C19.1421 43.096 19.097 44.32 18.9141 47.515C18.881 48.0935 18.6472 48.1589 18.647 48.4968C18.647 49.1929 18.8198 50.3773 18.8408 51.62C18.8753 53.6634 18.3834 54.8297 19.1348 54.6019C19.2608 55.9491 19.3867 57.2963 19.5127 58.6435C19.3677 59.1161 19.2227 59.5888 19.0777 60.0614C19.1184 60.247 19.1591 60.4327 19.1999 60.6184L19.1293 61.1927C19.1137 61.7399 19.0982 62.287 19.0826 62.8341C18.2324 61.7501 17.628 66.8243 18.6317 65.3781C17.7814 67.8576 16.9311 70.3372 16.0808 72.8167C14.97 72.164 14.5547 78.3459 15.3309 78.0103C15.2576 78.3001 15.1843 78.5898 15.111 78.8795C14.1592 81.3384 13.8384 83.7345 12.8527 86.7752C11.8671 89.8156 11.8228 89.4961 11.0366 90.2994C10.8866 91.0353 10.7366 91.7712 10.5866 92.5071C11.1025 96.3802 9.0568 95.5485 8.36689 100.764L8.40552 100.536C8.41533 100.976 8.44101 101.457 8.48581 101.984C7.31546 104.04 7.34704 109.375 7.32402 112.908C7.32128 113.319 7.50996 113.343 7.51894 113.892C7.53855 115.233 6.98702 118.601 7.6082 118.541C7.32484 119.698 7.04148 120.856 6.75812 122.013C6.78196 122.982 6.8058 123.951 6.82964 124.921C7.0207 124.933 7.21176 124.946 7.40282 124.958C6.57757 126.83 6.55135 129.888 6.25992 131.371C6.20135 131.666 5.93255 131.706 5.77663 132.626C5.5931 133.701 5.48756 135.725 5.28816 137.007C5.53386 137.535 5.77955 138.063 6.02525 138.591C5.98376 140.453 5.4327 141.298 5.1223 142.257L5.1215 141.883C5.08999 142.129 5.07405 142.379 5.0877 142.647C5.10054 142.892 5.57929 147.333 5.61852 147.571C5.93539 149.521 6.53719 148.903 6.93727 154.589C7.00812 155.602 6.85939 156.441 6.93725 157.355C7.07446 158.969 8.05119 163.781 8.56237 164.118C8.15449 166.131 8.89593 171.343 8.87108 172.901C8.86262 173.372 8.49413 173.513 8.54979 174.951C8.59454 176.117 9.18203 179.074 9.27138 180.55C9.29669 180.974 9.29571 181.326 9.28171 181.629L7.01493 179.469C7.81554 179.621 8.24347 179.816 8.75453 179.856C9.41663 179.908 10.0399 179.679 10.9435 179.722C13.764 179.862 16.2992 180.396 18.5283 180.507C21.7522 180.669 24.6359 180.039 27.3495 179.826C28.0168 179.906 28.6671 180.101 29.3691 180.135C38.0528 180.563 47.8433 181.159 56.5464 181.727C60.5868 181.99 70.5946 183.493 67.991 181.641C69.4104 181.404 79.5961 182.576 81.5392 182.677C83.4819 182.778 85.0366 182.539 86.5641 182.606C87.2335 182.635 87.8738 182.668 88.4968 182.703L88.2292 182.702C91.8996 182.573 94.9734 182.567 99.7592 182.123C101.205 181.988 102.742 181.552 103.6 181.518C104.634 181.478 105.762 181.784 107.102 181.747C110.296 181.656 116.24 181.275 119.305 181.2C119.865 181.187 120.075 181.49 120.879 181.552C124.01 181.794 127.499 181.606 126.837 180.638C130.854 181.026 134.523 180.347 138.221 180.151C146.039 179.739 160.297 179.338 167.091 178.617C170.129 178.294 170.948 177.979 173.427 177.859L169.605 181.855C169.601 180.836 169.643 179.539 169.755 177.696C169.84 176.291 169.956 174.892 170.058 173.187C170.298 169.191 171.123 165.525 170.129 162.48C170.386 158.042 170.204 154.508 171.054 151.215C170.85 150.827 170.646 150.439 170.442 150.05C170.437 149.506 170.432 148.962 170.427 148.418C170.621 148.248 170.816 148.079 171.01 147.909C171.011 147.859 171.012 147.808 171.012 147.757L171.045 148.167C170.462 144.337 168.926 139.661 168.417 136.445C167.552 130.981 165.607 116.863 165.038 111.642C164.735 108.871 164.3 108.788 164.894 107.079C164.737 106.473 164.58 105.868 164.422 105.262C164.176 104.907 163.929 104.551 163.682 104.196C163.509 103.131 163.354 102.001 163.206 100.851L163.218 100.919C162.812 98.2709 162.444 95.5102 162.01 93.175C160.875 87.0778 158.671 78.0145 157.871 71.8288C157.67 70.2778 157.695 68.2879 157.412 66.7851C157.409 66.7664 157.405 66.7478 157.402 66.7293L157.362 66.3013C157.346 64.123 156.715 63.5673 156.703 60.767C156.684 55.8991 157.429 46.8335 157.372 42.2325C157.356 40.8659 157.117 40.2283 157.091 39.2847C156.982 35.3279 157.001 32.0794 156.632 28.2853C157.247 24.2114 158.041 24.5634 158.842 23.3009C159.446 22.344 160.847 19.4101 161.376 18.9937C161.748 18.7011 162.227 19.7934 162.636 19.3835C162.963 24.2643 162.603 26.3148 162.027 30.2781C162.05 37.5972 162.073 44.9164 162.096 52.2355C161.873 52.9014 161.649 53.5673 161.426 54.2331C161.425 54.2331 161.425 54.2331 161.424 54.2331C161.166 57.0439 161.742 58.2352 161.873 59.7511C162.041 61.7021 162.169 63.9071 162.264 66.3013L162.221 65.8369C164.4 75.4581 166.617 88.3347 168.558 99.9305L168.569 99.9925C169.504 106.555 170.361 112.709 171.105 117.639C171.62 121.043 173.686 132.054 173.701 134.444C173.705 135.063 173.391 135.286 173.479 135.931C174.231 139.759 174.983 143.588 175.734 147.417L175.762 147.757C175.829 149.672 175.897 151.586 175.964 153.5C175.547 162.819 175.723 172.384 175.861 181.855L175.887 183.985L173.705 184.109C171.031 184.267 168.364 184.421 165.712 184.557C139.784 185.887 114.064 187.239 88.483 188.412L88.2312 188.412C81.6985 188.117 75.176 187.812 68.6627 187.492C62.4747 187.188 54.609 187.08 48.558 186.632C46.0326 186.446 45.0047 185.844 41.6637 186.101C41.6358 185.951 41.6078 185.8 41.5799 185.65C38.6726 185.695 36.8043 185.947 33.5526 185.831C30.8144 185.732 23.5722 185.417 21.1564 185.248C19.9032 185.161 20.3835 184.904 19.214 184.851C17.2115 184.763 12.9156 184.948 10.1528 184.82C9.20101 184.776 8.00314 184.673 6.77808 184.561L4.46282 184.483L4.20703 182.112C4.10632 180.11 4.02126 178.032 3.8794 176.847C3.05744 169.956 1.86747 162.479 1.29346 155.107C1.13575 153.071 1.2463 150.422 1.17564 149.786C1.0363 148.544 0.651708 148.207 0.527239 147.376C0.31074 145.928 0.143229 144.193 0.00124407 142.371L0 141.791C0.376652 138.312 0.904416 134.535 1.16373 131.803C2.1441 121.473 3.04715 110.665 3.99301 100.135L4.0679 99.6918C4.86314 96.4889 5.65837 93.3132 6.45367 90.1882C8.56566 81.8883 11.9502 68.0644 14.1199 60.4563C14.1724 60.2724 14.2223 60.1157 14.27 59.9807L14.1917 60.6184C14.2995 59.4894 14.6025 59.7052 14.6025 58.434C14.6025 56.8466 14.3428 55.9868 14.3218 55.245C14.1748 50.1099 13.9123 38.774 14.1777 33.9259C14.2287 33.0025 14.5299 32.3326 14.5288 31.7797C14.5288 31.4998 14.3233 30.8676 14.3023 29.989C14.2048 25.9242 14.1913 22.4363 14.2107 18.9432L14.1765 16.2091L16.9737 16.3314C20.1408 16.5274 23.3107 16.7507 26.9212 16.9876C34.3821 17.4763 42.459 17.8634 50.6181 18.2688L50.2041 18.2788C57.8932 17.4181 65.6578 16.5618 73.0663 15.8832C76.3848 15.5791 78.7196 15.9324 79.185 15.8774C80.2062 15.7578 80.8188 15.2904 82.8795 14.974C83.9341 14.8126 85.0473 14.663 86.1997 14.5221L86.581 14.5108C92.9598 14.6938 100.472 15.3155 106.046 15.3987C109.301 15.4476 113.79 15.1424 116.994 15.1754C119.552 15.2016 125.577 15.6752 126.719 15.5035C127.337 15.4116 127.673 15.0708 128.321 14.9844L128.141 14.9803C128.221 14.9658 128.307 14.9551 128.399 14.9491ZM42.3475 23.1364C42.8413 22.4702 38.0287 22.776 39.8011 23.2483C40.2003 23.3547 42.2198 23.3094 42.3475 23.1364ZM40.9354 181.888C40.9008 181.688 40.8662 181.488 40.8316 181.288C40.1999 181.341 39.5682 181.394 38.9365 181.448C39.2839 181.583 39.6312 181.718 39.9785 181.853C40.2975 181.865 40.6165 181.876 40.9354 181.888Z" fill="var(--stroke-0, #8A9E7E)"/>
</g>
</svg>
